<?xml version="1.0" encoding="us-ascii" standalone="no"?><svg xmlns="http://www.w3.org/2000/svg" xmlns:xlink="http://www.w3.org/1999/xlink" contentStyleType="text/css" height="282.3529px" preserveAspectRatio="none" style="width:150px;height:282px;background:#FFFFFF;" version="1.1" viewBox="0 0 150 282" width="150.9804px" zoomAndPan="magnify"><defs/><g><!--class Class--><g id="elem_Class"><rect codeLine="4" fill="#F1F1F1" height="262.0711" id="Class" rx="2.451" ry="2.451" style="stroke:#181818;stroke-width:0.49019607843137253;" width="130.3922" x="6.8627" y="6.8627"/><ellipse cx="50.7353" cy="22.549" fill="#ADD1B2" rx="10.7843" ry="10.7843" style="stroke:#181818;stroke-width:0.9803921568627451;"/><path d="M53.4467,18.5049 Q53.5999,18.2904 53.7837,18.1832 Q53.9675,18.076 54.182,18.076 Q54.5496,18.076 54.7794,18.3364 Q55.0092,18.5815 55.0092,19.1789 L55.0092,20.6036 Q55.0092,21.201 54.7794,21.4614 Q54.5496,21.7218 54.182,21.7218 Q53.845,21.7218 53.6458,21.5227 Q53.4467,21.3388 53.3395,20.8333 Q53.2935,20.481 53.1097,20.2972 Q52.788,19.9295 52.1906,19.7151 Q51.5931,19.5006 50.9804,19.5006 Q50.2298,19.5006 49.6017,19.8223 Q48.989,20.144 48.4988,20.8793 Q48.0239,21.6146 48.0239,22.6256 L48.0239,23.6979 Q48.0239,24.9081 48.8971,25.72 Q49.7702,26.5165 51.3327,26.5165 Q52.2518,26.5165 52.8952,26.2714 Q53.2782,26.1183 53.6918,25.6893 Q53.9522,25.4289 54.0901,25.3523 Q54.2433,25.2757 54.4424,25.2757 Q54.7641,25.2757 55.0092,25.5362 Q55.2696,25.7813 55.2696,26.1183 Q55.2696,26.4553 54.9326,26.8536 Q54.4424,27.4203 53.6612,27.742 Q52.6042,28.1863 51.3327,28.1863 Q49.8468,28.1863 48.6673,27.5735 Q47.7022,27.0833 47.0282,26.0417 Q46.3542,24.9847 46.3542,23.7286 L46.3542,22.595 Q46.3542,21.2929 46.9516,20.1746 Q47.5643,19.0411 48.6366,18.4436 Q49.7089,17.8309 50.9191,17.8309 Q51.6391,17.8309 52.2672,17.9994 Q52.9105,18.1526 53.4467,18.5049 Z " fill="#000000"/><text fill="#000000" font-family="sans-serif" font-size="13.7255" lengthAdjust="spacing" textLength="34.3137" x="70.8333" y="28.1652">Class</text><line style="stroke:#181818;stroke-width:0.49019607843137253;" x1="7.8431" x2="136.2745" y1="38.2353" y2="38.2353"/><text fill="#000000" font-family="sans-serif" font-size="13.7255" lengthAdjust="spacing" text-decoration="underline" textLength="87.2549" x="26.4706" y="77.5908">class-attribute</text><rect fill="none" height="5.8824" style="stroke:#C82930;stroke-width:0.9803921568627451;" width="5.8824" x="14.7059" y="87.7681"/><text fill="#000000" font-family="sans-serif" font-size="13.7255" lengthAdjust="spacing" textLength="34.3137" x="26.4706" y="94.8549">privat</text><polygon fill="none" points="17.6471,104.0518,13.7255,109.9341,21.5686,109.9341" style="stroke:#1963A0;stroke-width:0.9803921568627451;"/><text fill="#000000" font-family="sans-serif" font-size="13.7255" lengthAdjust="spacing" textLength="91.1765" x="26.4706" y="112.1189">package privat</text><polygon fill="none" points="17.6471,120.3355,21.5686,124.257,17.6471,128.1786,13.7255,124.257" style="stroke:#B38D22;stroke-width:0.9803921568627451;"/><text fill="#000000" font-family="sans-serif" font-size="13.7255" lengthAdjust="spacing" textLength="58.8235" x="26.4706" y="129.383">protected</text><ellipse cx="17.6471" cy="142.5015" fill="none" rx="2.9412" ry="2.9412" style="stroke:#038048;stroke-width:0.9803921568627451;"/><text fill="#000000" font-family="sans-serif" font-size="13.7255" lengthAdjust="spacing" textLength="36.2745" x="26.4706" y="146.6471">public</text><text fill="#000000" font-family="sans-serif" font-size="13.7255" lengthAdjust="spacing" textLength="3.9216" x="26.4706" y="163.9112">&#160;</text><line style="stroke:#181818;stroke-width:0.9803921568627451;stroke-dasharray:1.0,2.0;" x1="7.8431" x2="42.6471" y1="54.7105" y2="54.7105"/><text fill="#000000" font-family="sans-serif" font-size="13.7255" lengthAdjust="spacing" textLength="58.8235" x="42.6471" y="59.8365">Attributes</text><line style="stroke:#181818;stroke-width:0.9803921568627451;stroke-dasharray:1.0,2.0;" x1="101.4706" x2="136.2745" y1="54.7105" y2="54.7105"/><line style="stroke:#181818;stroke-width:0.49019607843137253;" x1="7.8431" x2="136.2745" y1="170.8487" y2="170.8487"/><rect fill="#F24D5C" height="5.8824" style="stroke:#C82930;stroke-width:0.9803921568627451;" width="5.8824" x="14.7059" y="203.1173"/><text fill="#000000" font-family="sans-serif" font-size="13.7255" lengthAdjust="spacing" textLength="44.1176" x="26.4706" y="210.2041">privat()</text><polygon fill="#4177AF" points="17.6471,219.401,13.7255,225.2834,21.5686,225.2834" style="stroke:#1963A0;stroke-width:0.9803921568627451;"/><text fill="#000000" font-family="sans-serif" font-size="13.7255" lengthAdjust="spacing" textLength="104.902" x="26.4706" y="227.4682">package_privat()</text><polygon fill="#FFFF44" points="17.6471,235.6847,21.5686,239.6063,17.6471,243.5279,13.7255,239.6063" style="stroke:#B38D22;stroke-width:0.9803921568627451;"/><text fill="#000000" font-family="sans-serif" font-size="13.7255" lengthAdjust="spacing" textLength="68.6275" x="26.4706" y="244.7323">protected()</text><ellipse cx="17.6471" cy="257.8508" fill="#84BE84" rx="2.9412" ry="2.9412" style="stroke:#038048;stroke-width:0.9803921568627451;"/><text fill="#000000" font-family="sans-serif" font-size="13.7255" lengthAdjust="spacing" textLength="46.0784" x="26.4706" y="261.9964">public()</text><line style="stroke:#181818;stroke-width:0.9803921568627451;stroke-dasharray:1.0,2.0;" x1="7.8431" x2="45.5882" y1="187.3238" y2="187.3238"/><text fill="#000000" font-family="sans-serif" font-size="13.7255" lengthAdjust="spacing" textLength="52.9412" x="45.5882" y="192.4498">Methods</text><line style="stroke:#181818;stroke-width:0.9803921568627451;stroke-dasharray:1.0,2.0;" x1="98.5294" x2="136.2745" y1="187.3238" y2="187.3238"/></g><!--SRC=[LOt12i8m38RlUOg05qKszE03Y6UVeMHfs8g5bJMRXp6VtLfMsN88V5_2_qScBtYzNV3jh7O0m9vYnCTlpu1fwXhlgeDhHfMOACivAgdZ1VDxHUKX7oiCWvj8Ctmm4B-ebQqy9EXLMCLcFcCO6-yOm9XI-XJjUljlBA77qpxMxFGcU3KbEk42y0K0]--></g></svg>