<?xml version="1.0" encoding="us-ascii" standalone="no"?><svg xmlns="http://www.w3.org/2000/svg" xmlns:xlink="http://www.w3.org/1999/xlink" contentStyleType="text/css" height="371.6434px" preserveAspectRatio="none" style="width:500px;height:371px;background:#FFFFFF;" version="1.1" viewBox="0 0 500 371" width="500.5371px" zoomAndPan="magnify"><defs/><g><!--class Geld--><g id="elem_Geld"><rect codeLine="2" fill="#F1F1F1" height="146.1298" id="Geld" rx="2.6853" ry="2.6853" style="stroke:#181818;stroke-width:0.5370569280343717;" width="110.6337" x="162.7282" y="7.5188"/><ellipse cx="198.6574" cy="24.7046" fill="#ADD1B2" rx="11.8153" ry="11.8153" style="stroke:#181818;stroke-width:1.0741138560687433;"/><path d="M201.628,20.2739 Q201.7958,20.0389 201.9972,19.9215 Q202.1986,19.804 202.4335,19.804 Q202.8363,19.804 203.0881,20.0893 Q203.3398,20.3578 203.3398,21.0124 L203.3398,22.5732 Q203.3398,23.2277 203.0881,23.513 Q202.8363,23.7983 202.4335,23.7983 Q202.0643,23.7983 201.8461,23.5802 Q201.628,23.3788 201.5105,22.8249 Q201.4601,22.4389 201.2587,22.2375 Q200.9063,21.8347 200.2517,21.5998 Q199.5972,21.3648 198.9259,21.3648 Q198.1035,21.3648 197.4154,21.7172 Q196.7441,22.0697 196.207,22.8753 Q195.6868,23.6809 195.6868,24.7885 L195.6868,25.9633 Q195.6868,27.2892 196.6434,28.1787 Q197.6,29.0514 199.3119,29.0514 Q200.3189,29.0514 201.0238,28.7829 Q201.4433,28.6151 201.8965,28.1451 Q202.1818,27.8598 202.3328,27.7759 Q202.5007,27.692 202.7189,27.692 Q203.0713,27.692 203.3398,27.9773 Q203.6251,28.2458 203.6251,28.6151 Q203.6251,28.9843 203.2559,29.4206 Q202.7189,30.0416 201.8629,30.3941 Q200.7049,30.8808 199.3119,30.8808 Q197.6839,30.8808 196.3916,30.2095 Q195.3343,29.6724 194.5959,28.5311 Q193.8574,27.3731 193.8574,25.9969 L193.8574,24.755 Q193.8574,23.3284 194.5119,22.1032 Q195.1833,20.8613 196.3581,20.2068 Q197.5329,19.5354 198.8588,19.5354 Q199.6476,19.5354 200.3357,19.7201 Q201.0405,19.8879 201.628,20.2739 Z " fill="#000000"/><text fill="#000000" font-family="sans-serif" font-size="15.0376" lengthAdjust="spacing" textLength="32.2234" x="218.0988" y="30.8577">Geld</text><line style="stroke:#181818;stroke-width:0.5370569280343717;" x1="163.8024" x2="272.2879" y1="41.8904" y2="41.8904"/><text fill="#000000" font-family="sans-serif" font-size="15.0376" lengthAdjust="spacing" text-decoration="underline" textLength="82.7068" x="184.2105" y="61.7972">wechselkurs</text><rect fill="none" height="6.4447" style="stroke:#C82930;stroke-width:1.0741138560687433;" width="6.4447" x="171.3212" y="72.9474"/><text fill="#000000" font-family="sans-serif" font-size="15.0376" lengthAdjust="spacing" textLength="44.0387" x="184.2105" y="80.7117">betrag</text><rect fill="none" height="6.4447" style="stroke:#C82930;stroke-width:1.0741138560687433;" width="6.4447" x="171.3212" y="91.8619"/><text fill="#000000" font-family="sans-serif" font-size="15.0376" lengthAdjust="spacing" textLength="66.5951" x="184.2105" y="99.6262">waehrung</text><line style="stroke:#181818;stroke-width:0.5370569280343717;" x1="163.8024" x2="272.2879" y1="107.2268" y2="107.2268"/><ellipse cx="174.5435" cy="122.5916" fill="#84BE84" rx="3.2223" ry="3.2223" style="stroke:#038048;stroke-width:1.0741138560687433;"/><text fill="#000000" font-family="sans-serif" font-size="15.0376" lengthAdjust="spacing" textLength="36.5199" x="184.2105" y="127.1335">add()</text><ellipse cx="174.5435" cy="141.5061" fill="#84BE84" rx="3.2223" ry="3.2223" style="stroke:#038048;stroke-width:1.0741138560687433;"/><text fill="#000000" font-family="sans-serif" font-size="15.0376" lengthAdjust="spacing" textLength="64.4468" x="184.2105" y="146.048">getEuro()</text></g><!--class Briefmarke--><g id="elem_Briefmarke"><rect codeLine="11" fill="#F1F1F1" height="108.3009" id="Briefmarke" rx="2.6853" ry="2.6853" style="stroke:#181818;stroke-width:0.5370569280343717;" width="107.4114" x="7.5188" y="236.8421"/><ellipse cx="23.6305" cy="254.0279" fill="#ADD1B2" rx="11.8153" ry="11.8153" style="stroke:#181818;stroke-width:1.0741138560687433;"/><path d="M26.6011,249.5972 Q26.7689,249.3622 26.9703,249.2448 Q27.1717,249.1273 27.4067,249.1273 Q27.8095,249.1273 28.0612,249.4126 Q28.313,249.6811 28.313,250.3357 L28.313,251.8965 Q28.313,252.551 28.0612,252.8363 Q27.8095,253.1216 27.4067,253.1216 Q27.0375,253.1216 26.8193,252.9035 Q26.6011,252.7021 26.4836,252.1482 Q26.4333,251.7622 26.2319,251.5608 Q25.8794,251.158 25.2249,250.9231 Q24.5704,250.6881 23.899,250.6881 Q23.0767,250.6881 22.3886,251.0405 Q21.7172,251.393 21.1802,252.1986 Q20.6599,253.0042 20.6599,254.1118 L20.6599,255.2867 Q20.6599,256.6125 21.6165,257.502 Q22.5732,258.3747 24.285,258.3747 Q25.292,258.3747 25.9969,258.1062 Q26.4165,257.9384 26.8696,257.4684 Q27.1549,257.1831 27.306,257.0992 Q27.4738,257.0153 27.692,257.0153 Q28.0444,257.0153 28.313,257.3006 Q28.5983,257.5691 28.5983,257.9384 Q28.5983,258.3076 28.2291,258.744 Q27.692,259.3649 26.8361,259.7174 Q25.678,260.2041 24.285,260.2041 Q22.6571,260.2041 21.3648,259.5328 Q20.3075,258.9957 19.569,257.8545 Q18.8306,256.6964 18.8306,255.3202 L18.8306,254.0783 Q18.8306,252.6517 19.4851,251.4266 Q20.1564,250.1846 21.3312,249.5301 Q22.506,248.8588 23.8319,248.8588 Q24.6207,248.8588 25.3088,249.0434 Q26.0137,249.2112 26.6011,249.5972 Z " fill="#000000"/><text fill="#000000" font-family="sans-serif" font-size="15.0376" lengthAdjust="spacing" textLength="73.0397" x="38.6681" y="260.181">Briefmarke</text><line style="stroke:#181818;stroke-width:0.5370569280343717;" x1="8.5929" x2="113.8561" y1="271.2137" y2="271.2137"/><rect fill="none" height="6.4447" style="stroke:#C82930;stroke-width:1.0741138560687433;" width="6.4447" x="16.1117" y="283.3563"/><text fill="#000000" font-family="sans-serif" font-size="15.0376" lengthAdjust="spacing" textLength="29.0011" x="29.0011" y="291.1205">land</text><rect fill="none" height="6.4447" style="stroke:#C82930;stroke-width:1.0741138560687433;" width="6.4447" x="16.1117" y="302.2707"/><text fill="#000000" font-family="sans-serif" font-size="15.0376" lengthAdjust="spacing" textLength="74.1139" x="29.0011" y="310.035">gestempelt</text><line style="stroke:#181818;stroke-width:0.5370569280343717;" x1="8.5929" x2="113.8561" y1="317.6356" y2="317.6356"/><ellipse cx="19.334" cy="333.0005" fill="#84BE84" rx="3.2223" ry="3.2223" style="stroke:#038048;stroke-width:1.0741138560687433;"/><text fill="#000000" font-family="sans-serif" font-size="15.0376" lengthAdjust="spacing" textLength="71.9656" x="29.0011" y="337.5424">stempeln()</text></g><!--class Scheck--><g id="elem_Scheck"><rect codeLine="18" fill="#F1F1F1" height="127.2154" id="Scheck" rx="2.6853" ry="2.6853" style="stroke:#181818;stroke-width:0.5370569280343717;" width="129.9678" x="153.0612" y="227.7121"/><ellipse cx="189.957" cy="244.898" fill="#ADD1B2" rx="11.8153" ry="11.8153" style="stroke:#181818;stroke-width:1.0741138560687433;"/><path d="M192.9276,240.4672 Q193.0955,240.2323 193.2969,240.1148 Q193.4983,239.9973 193.7332,239.9973 Q194.136,239.9973 194.3878,240.2826 Q194.6395,240.5512 194.6395,241.2057 L194.6395,242.7665 Q194.6395,243.4211 194.3878,243.7064 Q194.136,243.9917 193.7332,243.9917 Q193.364,243.9917 193.1458,243.7735 Q192.9276,243.5721 192.8102,243.0183 Q192.7598,242.6323 192.5584,242.4309 Q192.206,242.0281 191.5514,241.7931 Q190.8969,241.5581 190.2256,241.5581 Q189.4032,241.5581 188.7151,241.9106 Q188.0438,242.263 187.5067,243.0686 Q186.9864,243.8742 186.9864,244.9819 L186.9864,246.1567 Q186.9864,247.4825 187.9431,248.372 Q188.8997,249.2448 190.6116,249.2448 Q191.6186,249.2448 192.3234,248.9762 Q192.743,248.8084 193.1962,248.3385 Q193.4815,248.0532 193.6325,247.9693 Q193.8003,247.8853 194.0185,247.8853 Q194.371,247.8853 194.6395,248.1706 Q194.9248,248.4392 194.9248,248.8084 Q194.9248,249.1776 194.5556,249.614 Q194.0185,250.235 193.1626,250.5874 Q192.0046,251.0741 190.6116,251.0741 Q188.9836,251.0741 187.6913,250.4028 Q186.634,249.8657 185.8955,248.7245 Q185.1571,247.5665 185.1571,246.1903 L185.1571,244.9483 Q185.1571,243.5218 185.8116,242.2966 Q186.4829,241.0546 187.6578,240.4001 Q188.8326,239.7288 190.1584,239.7288 Q190.9472,239.7288 191.6353,239.9134 Q192.3402,240.0812 192.9276,240.4672 Z " fill="#000000"/><text fill="#000000" font-family="sans-serif" font-size="15.0376" lengthAdjust="spacing" textLength="49.4092" x="209.6133" y="251.051">Scheck</text><line style="stroke:#181818;stroke-width:0.5370569280343717;" x1="154.1353" x2="281.9549" y1="262.0838" y2="262.0838"/><rect fill="none" height="6.4447" style="stroke:#C82930;stroke-width:1.0741138560687433;" width="6.4447" x="161.6541" y="274.2263"/><text fill="#000000" font-family="sans-serif" font-size="15.0376" lengthAdjust="spacing" textLength="33.2975" x="174.5435" y="281.9906">bank</text><rect fill="none" height="6.4447" style="stroke:#C82930;stroke-width:1.0741138560687433;" width="6.4447" x="161.6541" y="293.1408"/><text fill="#000000" font-family="sans-serif" font-size="15.0376" lengthAdjust="spacing" textLength="102.0408" x="174.5435" y="300.905">schecknummer</text><rect fill="none" height="6.4447" style="stroke:#C82930;stroke-width:1.0741138560687433;" width="6.4447" x="161.6541" y="312.0552"/><text fill="#000000" font-family="sans-serif" font-size="15.0376" lengthAdjust="spacing" textLength="92.3738" x="174.5435" y="319.8195">kontonummer</text><rect fill="none" height="6.4447" style="stroke:#C82930;stroke-width:1.0741138560687433;" width="6.4447" x="161.6541" y="330.9697"/><text fill="#000000" font-family="sans-serif" font-size="15.0376" lengthAdjust="spacing" textLength="89.1515" x="174.5435" y="338.734">kontoinhaber</text><line style="stroke:#181818;stroke-width:0.5370569280343717;" x1="154.1353" x2="281.9549" y1="346.3346" y2="346.3346"/></g><!--class Konto--><g id="elem_Konto"><rect codeLine="25" fill="#F1F1F1" height="146.1298" id="Konto" rx="2.6853" ry="2.6853" style="stroke:#181818;stroke-width:0.5370569280343717;" width="172.9323" x="320.623" y="218.0451"/><ellipse cx="382.6531" cy="235.2309" fill="#ADD1B2" rx="11.8153" ry="11.8153" style="stroke:#181818;stroke-width:1.0741138560687433;"/><path d="M385.6237,230.8002 Q385.7915,230.5653 385.9929,230.4478 Q386.1943,230.3303 386.4292,230.3303 Q386.832,230.3303 387.0838,230.6156 Q387.3355,230.8841 387.3355,231.5387 L387.3355,233.0995 Q387.3355,233.754 387.0838,234.0393 Q386.832,234.3247 386.4292,234.3247 Q386.06,234.3247 385.8418,234.1065 Q385.6237,233.9051 385.5062,233.3512 Q385.4558,232.9652 385.2544,232.7638 Q384.902,232.361 384.2474,232.1261 Q383.5929,231.8911 382.9216,231.8911 Q382.0992,231.8911 381.4111,232.2436 Q380.7398,232.596 380.2027,233.4016 Q379.6825,234.2072 379.6825,235.3148 L379.6825,236.4897 Q379.6825,237.8155 380.6391,238.705 Q381.5957,239.5777 383.3076,239.5777 Q384.3146,239.5777 385.0195,239.3092 Q385.439,239.1414 385.8922,238.6715 Q386.1775,238.3861 386.3285,238.3022 Q386.4964,238.2183 386.7146,238.2183 Q387.067,238.2183 387.3355,238.5036 Q387.6208,238.7722 387.6208,239.1414 Q387.6208,239.5106 387.2516,239.947 Q386.7146,240.5679 385.8586,240.9204 Q384.7006,241.4071 383.3076,241.4071 Q381.6796,241.4071 380.3874,240.7358 Q379.33,240.1987 378.5916,239.0575 Q377.8531,237.8994 377.8531,236.5232 L377.8531,235.2813 Q377.8531,233.8547 378.5077,232.6296 Q379.179,231.3876 380.3538,230.7331 Q381.5286,230.0618 382.8545,230.0618 Q383.6433,230.0618 384.3314,230.2464 Q385.0363,230.4142 385.6237,230.8002 Z " fill="#000000"/><text fill="#000000" font-family="sans-serif" font-size="15.0376" lengthAdjust="spacing" textLength="39.7422" x="404.6724" y="241.384">Konto</text><line style="stroke:#181818;stroke-width:0.5370569280343717;" x1="321.6971" x2="492.4812" y1="252.4168" y2="252.4168"/><rect fill="none" height="6.4447" style="stroke:#C82930;stroke-width:1.0741138560687433;" width="6.4447" x="329.2159" y="264.5593"/><text fill="#000000" font-family="sans-serif" font-size="15.0376" lengthAdjust="spacing" textLength="51.5575" x="342.1053" y="272.3235">inhaber</text><rect fill="none" height="6.4447" style="stroke:#C82930;stroke-width:1.0741138560687433;" width="6.4447" x="329.2159" y="283.4738"/><text fill="#000000" font-family="sans-serif" font-size="15.0376" lengthAdjust="spacing" textLength="85.9291" x="342.1053" y="291.238">kontoauszug</text><line style="stroke:#181818;stroke-width:0.5370569280343717;" x1="321.6971" x2="492.4812" y1="298.8386" y2="298.8386"/><ellipse cx="332.4382" cy="314.2035" fill="#84BE84" rx="3.2223" ry="3.2223" style="stroke:#038048;stroke-width:1.0741138560687433;"/><text fill="#000000" font-family="sans-serif" font-size="15.0376" lengthAdjust="spacing" textLength="75.188" x="342.1053" y="318.7454">einzahlen()</text><ellipse cx="332.4382" cy="333.118" fill="#84BE84" rx="3.2223" ry="3.2223" style="stroke:#038048;stroke-width:1.0741138560687433;"/><text fill="#000000" font-family="sans-serif" font-size="15.0376" lengthAdjust="spacing" textLength="79.4844" x="342.1053" y="337.6599">auszahlen()</text><ellipse cx="332.4382" cy="352.0324" fill="#84BE84" rx="3.2223" ry="3.2223" style="stroke:#038048;stroke-width:1.0741138560687433;"/><text fill="#000000" font-family="sans-serif" font-size="15.0376" lengthAdjust="spacing" textLength="145.0054" x="342.1053" y="356.5743">druckeKontoauszug()</text></g><!--reverse link Geld to Briefmarke--><g id="link_Geld_Briefmarke"><path codeLine="34" d="M152.2284,169.088 C131.6914,196.3705 120.3222,211.493 101.3104,236.7454 " fill="none" id="Geld-backto-Briefmarke" style="stroke:#181818;stroke-width:1.0741138560687433;"/><polygon fill="none" points="163.8561,153.6412,147.0795,165.2121,157.3773,172.9639,163.8561,153.6412" style="stroke:#181818;stroke-width:1.0741138560687433;"/></g><!--reverse link Geld to Scheck--><g id="link_Geld_Scheck"><path codeLine="35" d="M218.0451,172.9753 C218.0451,196.971 218.0451,204.1568 218.0451,227.3899 " fill="none" id="Geld-backto-Scheck" style="stroke:#181818;stroke-width:1.0741138560687433;"/><polygon fill="none" points="218.0451,153.6412,211.6004,172.9753,224.4898,172.9753,218.0451,153.6412" style="stroke:#181818;stroke-width:1.0741138560687433;"/></g><!--reverse link Geld to Konto--><g id="link_Geld_Konto"><path codeLine="36" d="M286.4827,157.0682 C307.8361,180.602 319.42,193.3835 341.6327,217.8625 " fill="none" id="Geld-backto-Konto" style="stroke:#181818;stroke-width:1.0741138560687433;"/><polygon fill="none" points="273.4909,142.7497,281.7099,161.3988,291.2555,152.7376,273.4909,142.7497" style="stroke:#181818;stroke-width:1.0741138560687433;"/></g><!--SRC=[PP31RiCW38RlF0N7LLMaNdhhQLArGuzx0WUyW23EX46HclNTbmJOgCe1-Vz- -GUR5NYKvzD9pbP78vG7Plc1NYz2hcVX2D6gXvnH6KRlKk3Tw6IFCS1Gn0neGg8iz-i8MhyTSZbWlAOmhV8XoXFlmUBN2C7XKY8ya2xbW1nn_4OVHGwGHLCRyQaCAbVRUo1NIjuDIkE8eI0tKPnUYIK3_Oh-CcyRhP7LRHeWyJqDzLTewGx68zL1vUO_4nsISdZxRyuZR2kMbv-kQpRHm3nR0_O0yGi0]--></g></svg>