<?xml version="1.0" encoding="us-ascii" standalone="no"?><svg xmlns="http://www.w3.org/2000/svg" xmlns:xlink="http://www.w3.org/1999/xlink" contentStyleType="text/css" height="484.9246px" preserveAspectRatio="none" style="width:501px;height:484px;background:#FFFFFF;" version="1.1" viewBox="0 0 501 484" width="501.2563px" zoomAndPan="magnify"><defs/><g><!--class A--><g id="elem_A"><rect codeLine="2" fill="#F1F1F1" height="60.3015" id="A" rx="3.1407" ry="3.1407" style="stroke:#181818;stroke-width:0.628140703517588;" width="51.5075" x="224.8744" y="8.794"/><ellipse cx="243.7186" cy="28.8945" fill="#ADD1B2" rx="13.8191" ry="13.8191" style="stroke:#181818;stroke-width:1.256281407035176;"/><path d="M247.193,23.7123 Q247.3893,23.4375 247.6248,23.3001 Q247.8604,23.1627 248.1352,23.1627 Q248.6063,23.1627 248.9008,23.4964 Q249.1952,23.8105 249.1952,24.576 L249.1952,26.4015 Q249.1952,27.1671 248.9008,27.5008 Q248.6063,27.8345 248.1352,27.8345 Q247.7034,27.8345 247.4482,27.5793 Q247.193,27.3438 247.0556,26.696 Q246.9967,26.2445 246.7611,26.009 Q246.3489,25.5378 245.5834,25.263 Q244.8178,24.9882 244.0327,24.9882 Q243.0708,24.9882 242.266,25.4004 Q241.4808,25.8127 240.8527,26.7549 Q240.2442,27.6971 240.2442,28.9926 L240.2442,30.3667 Q240.2442,31.9174 241.3631,32.9578 Q242.4819,33.9785 244.4841,33.9785 Q245.6619,33.9785 246.4863,33.6644 Q246.9771,33.4681 247.5071,32.9185 Q247.8408,32.5848 248.0174,32.4867 Q248.2137,32.3885 248.4689,32.3885 Q248.8811,32.3885 249.1952,32.7222 Q249.5289,33.0363 249.5289,33.4681 Q249.5289,33.9 249.097,34.4103 Q248.4689,35.1366 247.4678,35.5488 Q246.1134,36.1181 244.4841,36.1181 Q242.5801,36.1181 241.0686,35.3329 Q239.832,34.7048 238.9683,33.37 Q238.1046,32.0155 238.1046,30.4059 L238.1046,28.9534 Q238.1046,27.2849 238.8701,25.8519 Q239.6553,24.3993 241.0294,23.6338 Q242.4034,22.8486 243.9541,22.8486 Q244.8767,22.8486 245.6815,23.0645 Q246.506,23.2608 247.193,23.7123 Z " fill="#000000"/><text fill="#000000" font-family="sans-serif" font-size="17.5879" lengthAdjust="spacing" textLength="11.3065" x="261.3065" y="36.0911">A</text><line style="stroke:#181818;stroke-width:0.628140703517588;" x1="226.1307" x2="275.1256" y1="48.995" y2="48.995"/><line style="stroke:#181818;stroke-width:0.628140703517588;" x1="226.1307" x2="275.1256" y1="59.0452" y2="59.0452"/></g><!--class B1--><g id="elem_B1"><rect codeLine="3" fill="#F1F1F1" height="60.3015" id="B1" rx="3.1407" ry="3.1407" style="stroke:#181818;stroke-width:0.628140703517588;" width="61.5578" x="114.3216" y="144.4724"/><ellipse cx="133.1658" cy="164.5729" fill="#ADD1B2" rx="13.8191" ry="13.8191" style="stroke:#181818;stroke-width:1.256281407035176;"/><path d="M136.6402,159.3907 Q136.8365,159.1159 137.0721,158.9785 Q137.3076,158.8411 137.5824,158.8411 Q138.0535,158.8411 138.348,159.1748 Q138.6424,159.4889 138.6424,160.2544 L138.6424,162.0799 Q138.6424,162.8455 138.348,163.1792 Q138.0535,163.5129 137.5824,163.5129 Q137.1506,163.5129 136.8954,163.2577 Q136.6402,163.0221 136.5028,162.3744 Q136.4439,161.9229 136.2084,161.6873 Q135.7962,161.2162 135.0306,160.9414 Q134.2651,160.6666 133.4799,160.6666 Q132.5181,160.6666 131.7133,161.0788 Q130.9281,161.491 130.2999,162.4333 Q129.6914,163.3755 129.6914,164.671 L129.6914,166.0451 Q129.6914,167.5958 130.8103,168.6361 Q131.9292,169.6569 133.9314,169.6569 Q135.1091,169.6569 135.9336,169.3428 Q136.4243,169.1465 136.9543,168.5969 Q137.288,168.2632 137.4647,168.165 Q137.661,168.0669 137.9161,168.0669 Q138.3284,168.0669 138.6424,168.4006 Q138.9761,168.7147 138.9761,169.1465 Q138.9761,169.5784 138.5443,170.0887 Q137.9161,170.815 136.915,171.2272 Q135.5606,171.7965 133.9314,171.7965 Q132.0273,171.7965 130.5159,171.0113 Q129.2792,170.3832 128.4155,169.0484 Q127.5518,167.6939 127.5518,166.0843 L127.5518,164.6318 Q127.5518,162.9633 128.3174,161.5303 Q129.1025,160.0777 130.4766,159.3122 Q131.8507,158.527 133.4014,158.527 Q134.324,158.527 135.1288,158.7429 Q135.9532,158.9392 136.6402,159.3907 Z " fill="#000000"/><text fill="#000000" font-family="sans-serif" font-size="17.5879" lengthAdjust="spacing" textLength="21.3568" x="150.7538" y="171.7695">B1</text><line style="stroke:#181818;stroke-width:0.628140703517588;" x1="115.5779" x2="174.6231" y1="184.6734" y2="184.6734"/><line style="stroke:#181818;stroke-width:0.628140703517588;" x1="115.5779" x2="174.6231" y1="194.7236" y2="194.7236"/></g><!--class B2--><g id="elem_B2"><rect codeLine="4" fill="#F1F1F1" height="60.3015" id="B2" rx="3.1407" ry="3.1407" style="stroke:#181818;stroke-width:0.628140703517588;" width="61.5578" x="219.8492" y="144.4724"/><ellipse cx="238.6935" cy="164.5729" fill="#ADD1B2" rx="13.8191" ry="13.8191" style="stroke:#181818;stroke-width:1.256281407035176;"/><path d="M242.1679,159.3907 Q242.3642,159.1159 242.5997,158.9785 Q242.8353,158.8411 243.1101,158.8411 Q243.5812,158.8411 243.8756,159.1748 Q244.1701,159.4889 244.1701,160.2544 L244.1701,162.0799 Q244.1701,162.8455 243.8756,163.1792 Q243.5812,163.5129 243.1101,163.5129 Q242.6782,163.5129 242.4231,163.2577 Q242.1679,163.0221 242.0305,162.3744 Q241.9716,161.9229 241.736,161.6873 Q241.3238,161.2162 240.5583,160.9414 Q239.7927,160.6666 239.0075,160.6666 Q238.0457,160.6666 237.2409,161.0788 Q236.4557,161.491 235.8276,162.4333 Q235.2191,163.3755 235.2191,164.671 L235.2191,166.0451 Q235.2191,167.5958 236.3379,168.6361 Q237.4568,169.6569 239.459,169.6569 Q240.6368,169.6569 241.4612,169.3428 Q241.9519,169.1465 242.4819,168.5969 Q242.8156,168.2632 242.9923,168.165 Q243.1886,168.0669 243.4438,168.0669 Q243.856,168.0669 244.1701,168.4006 Q244.5038,168.7147 244.5038,169.1465 Q244.5038,169.5784 244.0719,170.0887 Q243.4438,170.815 242.4427,171.2272 Q241.0883,171.7965 239.459,171.7965 Q237.555,171.7965 236.0435,171.0113 Q234.8068,170.3832 233.9432,169.0484 Q233.0795,167.6939 233.0795,166.0843 L233.0795,164.6318 Q233.0795,162.9633 233.845,161.5303 Q234.6302,160.0777 236.0042,159.3122 Q237.3783,158.527 238.929,158.527 Q239.8516,158.527 240.6564,158.7429 Q241.4808,158.9392 242.1679,159.3907 Z " fill="#000000"/><text fill="#000000" font-family="sans-serif" font-size="17.5879" lengthAdjust="spacing" textLength="21.3568" x="256.2814" y="171.7695">B2</text><line style="stroke:#181818;stroke-width:0.628140703517588;" x1="221.1055" x2="280.1508" y1="184.6734" y2="184.6734"/><line style="stroke:#181818;stroke-width:0.628140703517588;" x1="221.1055" x2="280.1508" y1="194.7236" y2="194.7236"/></g><!--class B3--><g id="elem_B3"><rect codeLine="5" fill="#F1F1F1" height="60.3015" id="B3" rx="3.1407" ry="3.1407" style="stroke:#181818;stroke-width:0.628140703517588;" width="61.5578" x="8.794" y="144.4724"/><ellipse cx="27.6382" cy="164.5729" fill="#ADD1B2" rx="13.8191" ry="13.8191" style="stroke:#181818;stroke-width:1.256281407035176;"/><path d="M31.1126,159.3907 Q31.3089,159.1159 31.5444,158.9785 Q31.78,158.8411 32.0548,158.8411 Q32.5259,158.8411 32.8204,159.1748 Q33.1148,159.4889 33.1148,160.2544 L33.1148,162.0799 Q33.1148,162.8455 32.8204,163.1792 Q32.5259,163.5129 32.0548,163.5129 Q31.623,163.5129 31.3678,163.2577 Q31.1126,163.0221 30.9752,162.3744 Q30.9163,161.9229 30.6807,161.6873 Q30.2685,161.2162 29.503,160.9414 Q28.7374,160.6666 27.9523,160.6666 Q26.9904,160.6666 26.1856,161.0788 Q25.4004,161.491 24.7723,162.4333 Q24.1638,163.3755 24.1638,164.671 L24.1638,166.0451 Q24.1638,167.5958 25.2827,168.6361 Q26.4015,169.6569 28.4037,169.6569 Q29.5815,169.6569 30.4059,169.3428 Q30.8967,169.1465 31.4267,168.5969 Q31.7604,168.2632 31.937,168.165 Q32.1333,168.0669 32.3885,168.0669 Q32.8007,168.0669 33.1148,168.4006 Q33.4485,168.7147 33.4485,169.1465 Q33.4485,169.5784 33.0166,170.0887 Q32.3885,170.815 31.3874,171.2272 Q30.033,171.7965 28.4037,171.7965 Q26.4997,171.7965 24.9882,171.0113 Q23.7516,170.3832 22.8879,169.0484 Q22.0242,167.6939 22.0242,166.0843 L22.0242,164.6318 Q22.0242,162.9633 22.7897,161.5303 Q23.5749,160.0777 24.949,159.3122 Q26.323,158.527 27.8737,158.527 Q28.7963,158.527 29.6011,158.7429 Q30.4256,158.9392 31.1126,159.3907 Z " fill="#000000"/><text fill="#000000" font-family="sans-serif" font-size="17.5879" lengthAdjust="spacing" textLength="21.3568" x="45.2261" y="171.7695">B3</text><line style="stroke:#181818;stroke-width:0.628140703517588;" x1="10.0503" x2="69.0955" y1="184.6734" y2="184.6734"/><line style="stroke:#181818;stroke-width:0.628140703517588;" x1="10.0503" x2="69.0955" y1="194.7236" y2="194.7236"/></g><!--class B4--><g id="elem_B4"><rect codeLine="6" fill="#F1F1F1" height="60.3015" id="B4" rx="3.1407" ry="3.1407" style="stroke:#181818;stroke-width:0.628140703517588;" width="61.5578" x="325.3769" y="144.4724"/><ellipse cx="344.2211" cy="164.5729" fill="#ADD1B2" rx="13.8191" ry="13.8191" style="stroke:#181818;stroke-width:1.256281407035176;"/><path d="M347.6955,159.3907 Q347.8918,159.1159 348.1274,158.9785 Q348.3629,158.8411 348.6377,158.8411 Q349.1088,158.8411 349.4033,159.1748 Q349.6977,159.4889 349.6977,160.2544 L349.6977,162.0799 Q349.6977,162.8455 349.4033,163.1792 Q349.1088,163.5129 348.6377,163.5129 Q348.2059,163.5129 347.9507,163.2577 Q347.6955,163.0221 347.5581,162.3744 Q347.4992,161.9229 347.2637,161.6873 Q346.8514,161.2162 346.0859,160.9414 Q345.3204,160.6666 344.5352,160.6666 Q343.5733,160.6666 342.7685,161.0788 Q341.9834,161.491 341.3552,162.4333 Q340.7467,163.3755 340.7467,164.671 L340.7467,166.0451 Q340.7467,167.5958 341.8656,168.6361 Q342.9845,169.6569 344.9867,169.6569 Q346.1644,169.6569 346.9889,169.3428 Q347.4796,169.1465 348.0096,168.5969 Q348.3433,168.2632 348.5199,168.165 Q348.7162,168.0669 348.9714,168.0669 Q349.3836,168.0669 349.6977,168.4006 Q350.0314,168.7147 350.0314,169.1465 Q350.0314,169.5784 349.5996,170.0887 Q348.9714,170.815 347.9703,171.2272 Q346.6159,171.7965 344.9867,171.7965 Q343.0826,171.7965 341.5711,171.0113 Q340.3345,170.3832 339.4708,169.0484 Q338.6071,167.6939 338.6071,166.0843 L338.6071,164.6318 Q338.6071,162.9633 339.3726,161.5303 Q340.1578,160.0777 341.5319,159.3122 Q342.9059,158.527 344.4567,158.527 Q345.3792,158.527 346.184,158.7429 Q347.0085,158.9392 347.6955,159.3907 Z " fill="#000000"/><text fill="#000000" font-family="sans-serif" font-size="17.5879" lengthAdjust="spacing" textLength="21.3568" x="361.809" y="171.7695">B4</text><line style="stroke:#181818;stroke-width:0.628140703517588;" x1="326.6332" x2="385.6784" y1="184.6734" y2="184.6734"/><line style="stroke:#181818;stroke-width:0.628140703517588;" x1="326.6332" x2="385.6784" y1="194.7236" y2="194.7236"/></g><!--class B5--><g id="elem_B5"><rect codeLine="7" fill="#F1F1F1" height="60.3015" id="B5" rx="3.1407" ry="3.1407" style="stroke:#181818;stroke-width:0.628140703517588;" width="61.5578" x="430.9045" y="144.4724"/><ellipse cx="449.7487" cy="164.5729" fill="#ADD1B2" rx="13.8191" ry="13.8191" style="stroke:#181818;stroke-width:1.256281407035176;"/><path d="M453.2231,159.3907 Q453.4194,159.1159 453.655,158.9785 Q453.8905,158.8411 454.1654,158.8411 Q454.6365,158.8411 454.9309,159.1748 Q455.2253,159.4889 455.2253,160.2544 L455.2253,162.0799 Q455.2253,162.8455 454.9309,163.1792 Q454.6365,163.5129 454.1654,163.5129 Q453.7335,163.5129 453.4783,163.2577 Q453.2231,163.0221 453.0857,162.3744 Q453.0269,161.9229 452.7913,161.6873 Q452.3791,161.2162 451.6135,160.9414 Q450.848,160.6666 450.0628,160.6666 Q449.101,160.6666 448.2962,161.0788 Q447.511,161.491 446.8829,162.4333 Q446.2743,163.3755 446.2743,164.671 L446.2743,166.0451 Q446.2743,167.5958 447.3932,168.6361 Q448.5121,169.6569 450.5143,169.6569 Q451.6921,169.6569 452.5165,169.3428 Q453.0072,169.1465 453.5372,168.5969 Q453.8709,168.2632 454.0476,168.165 Q454.2439,168.0669 454.4991,168.0669 Q454.9113,168.0669 455.2253,168.4006 Q455.559,168.7147 455.559,169.1465 Q455.559,169.5784 455.1272,170.0887 Q454.4991,170.815 453.498,171.2272 Q452.1435,171.7965 450.5143,171.7965 Q448.6102,171.7965 447.0988,171.0113 Q445.8621,170.3832 444.9984,169.0484 Q444.1347,167.6939 444.1347,166.0843 L444.1347,164.6318 Q444.1347,162.9633 444.9003,161.5303 Q445.6855,160.0777 447.0595,159.3122 Q448.4336,158.527 449.9843,158.527 Q450.9069,158.527 451.7117,158.7429 Q452.5361,158.9392 453.2231,159.3907 Z " fill="#000000"/><text fill="#000000" font-family="sans-serif" font-size="17.5879" lengthAdjust="spacing" textLength="21.3568" x="467.3367" y="171.7695">B5</text><line style="stroke:#181818;stroke-width:0.628140703517588;" x1="432.1608" x2="491.206" y1="184.6734" y2="184.6734"/><line style="stroke:#181818;stroke-width:0.628140703517588;" x1="432.1608" x2="491.206" y1="194.7236" y2="194.7236"/></g><!--class C1--><g id="elem_C1"><rect codeLine="8" fill="#F1F1F1" height="60.3015" id="C1" rx="3.1407" ry="3.1407" style="stroke:#181818;stroke-width:0.628140703517588;" width="62.8141" x="112.4372" y="280.1508"/><ellipse cx="131.2814" cy="300.2513" fill="#ADD1B2" rx="13.8191" ry="13.8191" style="stroke:#181818;stroke-width:1.256281407035176;"/><path d="M134.7558,295.0691 Q134.9521,294.7943 135.1877,294.6569 Q135.4232,294.5195 135.698,294.5195 Q136.1691,294.5195 136.4636,294.8532 Q136.758,295.1672 136.758,295.9328 L136.758,297.7583 Q136.758,298.5239 136.4636,298.8576 Q136.1691,299.1913 135.698,299.1913 Q135.2662,299.1913 135.011,298.9361 Q134.7558,298.7005 134.6184,298.0528 Q134.5595,297.6013 134.324,297.3657 Q133.9117,296.8946 133.1462,296.6198 Q132.3807,296.345 131.5955,296.345 Q130.6336,296.345 129.8288,296.7572 Q129.0437,297.1694 128.4155,298.1117 Q127.807,299.0539 127.807,300.3494 L127.807,301.7235 Q127.807,303.2742 128.9259,304.3145 Q130.0448,305.3353 132.047,305.3353 Q133.2247,305.3353 134.0492,305.0212 Q134.5399,304.8249 135.0699,304.2753 Q135.4036,303.9416 135.5802,303.8434 Q135.7765,303.7453 136.0317,303.7453 Q136.4439,303.7453 136.758,304.079 Q137.0917,304.3931 137.0917,304.8249 Q137.0917,305.2568 136.6599,305.7671 Q136.0317,306.4934 135.0306,306.9056 Q133.6762,307.4749 132.047,307.4749 Q130.1429,307.4749 128.6314,306.6897 Q127.3948,306.0616 126.5311,304.7268 Q125.6674,303.3723 125.6674,301.7627 L125.6674,300.3101 Q125.6674,298.6416 126.4329,297.2087 Q127.2181,295.7561 128.5922,294.9906 Q129.9662,294.2054 131.517,294.2054 Q132.4395,294.2054 133.2443,294.4213 Q134.0688,294.6176 134.7558,295.0691 Z " fill="#000000"/><text fill="#000000" font-family="sans-serif" font-size="17.5879" lengthAdjust="spacing" textLength="22.6131" x="148.8693" y="307.4479">C1</text><line style="stroke:#181818;stroke-width:0.628140703517588;" x1="113.6935" x2="173.995" y1="320.3518" y2="320.3518"/><line style="stroke:#181818;stroke-width:0.628140703517588;" x1="113.6935" x2="173.995" y1="330.402" y2="330.402"/></g><!--class C2--><g id="elem_C2"><rect codeLine="9" fill="#F1F1F1" height="60.3015" id="C2" rx="3.1407" ry="3.1407" style="stroke:#181818;stroke-width:0.628140703517588;" width="62.8141" x="326.005" y="280.1508"/><ellipse cx="344.8492" cy="300.2513" fill="#ADD1B2" rx="13.8191" ry="13.8191" style="stroke:#181818;stroke-width:1.256281407035176;"/><path d="M348.3236,295.0691 Q348.5199,294.7943 348.7555,294.6569 Q348.991,294.5195 349.2659,294.5195 Q349.737,294.5195 350.0314,294.8532 Q350.3258,295.1672 350.3258,295.9328 L350.3258,297.7583 Q350.3258,298.5239 350.0314,298.8576 Q349.737,299.1913 349.2659,299.1913 Q348.834,299.1913 348.5788,298.9361 Q348.3236,298.7005 348.1862,298.0528 Q348.1274,297.6013 347.8918,297.3657 Q347.4796,296.8946 346.714,296.6198 Q345.9485,296.345 345.1633,296.345 Q344.2015,296.345 343.3967,296.7572 Q342.6115,297.1694 341.9834,298.1117 Q341.3748,299.0539 341.3748,300.3494 L341.3748,301.7235 Q341.3748,303.2742 342.4937,304.3145 Q343.6126,305.3353 345.6148,305.3353 Q346.7926,305.3353 347.617,305.0212 Q348.1077,304.8249 348.6377,304.2753 Q348.9714,303.9416 349.1481,303.8434 Q349.3444,303.7453 349.5996,303.7453 Q350.0118,303.7453 350.3258,304.079 Q350.6595,304.3931 350.6595,304.8249 Q350.6595,305.2568 350.2277,305.7671 Q349.5996,306.4934 348.5985,306.9056 Q347.244,307.4749 345.6148,307.4749 Q343.7107,307.4749 342.1993,306.6897 Q340.9626,306.0616 340.0989,304.7268 Q339.2352,303.3723 339.2352,301.7627 L339.2352,300.3101 Q339.2352,298.6416 340.0008,297.2087 Q340.786,295.7561 342.16,294.9906 Q343.5341,294.2054 345.0848,294.2054 Q346.0074,294.2054 346.8122,294.4213 Q347.6366,294.6176 348.3236,295.0691 Z " fill="#000000"/><text fill="#000000" font-family="sans-serif" font-size="17.5879" lengthAdjust="spacing" textLength="22.6131" x="362.4372" y="307.4479">C2</text><line style="stroke:#181818;stroke-width:0.628140703517588;" x1="327.2613" x2="387.5628" y1="320.3518" y2="320.3518"/><line style="stroke:#181818;stroke-width:0.628140703517588;" x1="327.2613" x2="387.5628" y1="330.402" y2="330.402"/></g><!--class C3--><g id="elem_C3"><rect codeLine="10" fill="#F1F1F1" height="60.3015" id="C3" rx="3.1407" ry="3.1407" style="stroke:#181818;stroke-width:0.628140703517588;" width="62.8141" x="219.2211" y="280.1508"/><ellipse cx="238.0653" cy="300.2513" fill="#ADD1B2" rx="13.8191" ry="13.8191" style="stroke:#181818;stroke-width:1.256281407035176;"/><path d="M241.5397,295.0691 Q241.736,294.7943 241.9716,294.6569 Q242.2071,294.5195 242.4819,294.5195 Q242.953,294.5195 243.2475,294.8532 Q243.5419,295.1672 243.5419,295.9328 L243.5419,297.7583 Q243.5419,298.5239 243.2475,298.8576 Q242.953,299.1913 242.4819,299.1913 Q242.0501,299.1913 241.7949,298.9361 Q241.5397,298.7005 241.4023,298.0528 Q241.3434,297.6013 241.1079,297.3657 Q240.6957,296.8946 239.9301,296.6198 Q239.1646,296.345 238.3794,296.345 Q237.4176,296.345 236.6128,296.7572 Q235.8276,297.1694 235.1994,298.1117 Q234.5909,299.0539 234.5909,300.3494 L234.5909,301.7235 Q234.5909,303.2742 235.7098,304.3145 Q236.8287,305.3353 238.8309,305.3353 Q240.0086,305.3353 240.8331,305.0212 Q241.3238,304.8249 241.8538,304.2753 Q242.1875,303.9416 242.3642,303.8434 Q242.5605,303.7453 242.8156,303.7453 Q243.2279,303.7453 243.5419,304.079 Q243.8756,304.3931 243.8756,304.8249 Q243.8756,305.2568 243.4438,305.7671 Q242.8156,306.4934 241.8145,306.9056 Q240.4601,307.4749 238.8309,307.4749 Q236.9268,307.4749 235.4154,306.6897 Q234.1787,306.0616 233.315,304.7268 Q232.4513,303.3723 232.4513,301.7627 L232.4513,300.3101 Q232.4513,298.6416 233.2169,297.2087 Q234.002,295.7561 235.3761,294.9906 Q236.7502,294.2054 238.3009,294.2054 Q239.2235,294.2054 240.0283,294.4213 Q240.8527,294.6176 241.5397,295.0691 Z " fill="#000000"/><text fill="#000000" font-family="sans-serif" font-size="17.5879" lengthAdjust="spacing" textLength="22.6131" x="255.6533" y="307.4479">C3</text><line style="stroke:#181818;stroke-width:0.628140703517588;" x1="220.4774" x2="280.7789" y1="320.3518" y2="320.3518"/><line style="stroke:#181818;stroke-width:0.628140703517588;" x1="220.4774" x2="280.7789" y1="330.402" y2="330.402"/></g><!--class D--><g id="elem_D"><rect codeLine="11" fill="#F1F1F1" height="60.3015" id="D" rx="3.1407" ry="3.1407" style="stroke:#181818;stroke-width:0.628140703517588;" width="52.7638" x="224.2462" y="415.8291"/><ellipse cx="243.0905" cy="435.9296" fill="#ADD1B2" rx="13.8191" ry="13.8191" style="stroke:#181818;stroke-width:1.256281407035176;"/><path d="M246.5649,430.7475 Q246.7611,430.4727 246.9967,430.3353 Q247.2323,430.1979 247.5071,430.1979 Q247.9782,430.1979 248.2726,430.5316 Q248.5671,430.8456 248.5671,431.6112 L248.5671,433.4367 Q248.5671,434.2023 248.2726,434.536 Q247.9782,434.8697 247.5071,434.8697 Q247.0752,434.8697 246.82,434.6145 Q246.5649,434.3789 246.4274,433.7312 Q246.3686,433.2797 246.133,433.0441 Q245.7208,432.573 244.9552,432.2982 Q244.1897,432.0234 243.4045,432.0234 Q242.4427,432.0234 241.6379,432.4356 Q240.8527,432.8478 240.2246,433.79 Q239.616,434.7323 239.616,436.0278 L239.616,437.4019 Q239.616,438.9526 240.7349,439.9929 Q241.8538,441.0137 243.856,441.0137 Q245.0338,441.0137 245.8582,440.6996 Q246.3489,440.5033 246.8789,439.9537 Q247.2126,439.62 247.3893,439.5218 Q247.5856,439.4237 247.8408,439.4237 Q248.253,439.4237 248.5671,439.7574 Q248.9008,440.0715 248.9008,440.5033 Q248.9008,440.9351 248.4689,441.4455 Q247.8408,442.1718 246.8397,442.584 Q245.4852,443.1533 243.856,443.1533 Q241.9519,443.1533 240.4405,442.3681 Q239.2038,441.7399 238.3401,440.4052 Q237.4764,439.0507 237.4764,437.4411 L237.4764,435.9885 Q237.4764,434.32 238.242,432.8871 Q239.0272,431.4345 240.4012,430.669 Q241.7753,429.8838 243.326,429.8838 Q244.2486,429.8838 245.0534,430.0997 Q245.8778,430.296 246.5649,430.7475 Z " fill="#000000"/><text fill="#000000" font-family="sans-serif" font-size="17.5879" lengthAdjust="spacing" textLength="12.5628" x="260.6784" y="443.1263">D</text><line style="stroke:#181818;stroke-width:0.628140703517588;" x1="225.5025" x2="275.7538" y1="456.0302" y2="456.0302"/><line style="stroke:#181818;stroke-width:0.628140703517588;" x1="225.5025" x2="275.7538" y1="466.0804" y2="466.0804"/></g><!--reverse link C1 to D--><g id="link_C1_D"><path codeLine="13" d="M181.1558,358.0945 C198.9447,380.2804 209.2714,393.1407 227.1357,415.4271 " fill="none" id="C1-backto-D" style="stroke:#181818;stroke-width:1.256281407035176;"/><polygon fill="none" points="167.0101,340.4523,175.2751,362.8097,187.0365,353.3792,167.0101,340.4523" style="stroke:#181818;stroke-width:1.256281407035176;"/></g><!--reverse link C2 to D--><g id="link_C2_D"><path codeLine="14" d="M320.1005,358.0945 C302.3115,380.2804 291.9849,393.1407 274.1206,415.4271 " fill="none" id="C2-backto-D" style="stroke:#181818;stroke-width:1.256281407035176;"/><polygon fill="none" points="334.2462,340.4523,314.2197,353.3792,325.9812,362.8097,334.2462,340.4523" style="stroke:#181818;stroke-width:1.256281407035176;"/></g><!--reverse link C3 to D--><g id="link_C3_D"><path codeLine="15" d="M250.6281,363.0653 C250.6281,385.2513 250.6281,393.1407 250.6281,415.4271 " fill="none" id="C3-backto-D" style="stroke:#181818;stroke-width:1.256281407035176;"/><polygon fill="none" points="250.6281,340.4523,243.0905,363.0653,258.1658,363.0653,250.6281,340.4523" style="stroke:#181818;stroke-width:1.256281407035176;"/></g><!--reverse link B1 to C3--><g id="link_B1_C3"><path codeLine="17" d="M182.0442,222.4991 C199.6195,244.685 209.7487,257.4623 227.4121,279.7487 " fill="none" id="B1-backto-C3" style="stroke:#181818;stroke-width:1.256281407035176;"/><polygon fill="none" points="168.0025,204.7739,176.1358,227.1796,187.9526,217.8185,168.0025,204.7739" style="stroke:#181818;stroke-width:1.256281407035176;"/></g><!--reverse link B4 to C3--><g id="link_B4_C3"><path codeLine="18" d="M319.2121,222.4991 C301.6367,244.685 291.5075,257.4623 273.8442,279.7487 " fill="none" id="B4-backto-C3" style="stroke:#181818;stroke-width:1.256281407035176;"/><polygon fill="none" points="333.2538,204.7739,313.3037,217.8185,325.1205,227.1796,333.2538,204.7739" style="stroke:#181818;stroke-width:1.256281407035176;"/></g><!--reverse link B2 to C2--><g id="link_B2_C2"><path codeLine="20" d="M287.9397,222.4161 C305.7287,244.602 316.0553,257.4623 333.9196,279.7487 " fill="none" id="B2-backto-C2" style="stroke:#181818;stroke-width:1.256281407035176;"/><polygon fill="none" points="273.794,204.7739,282.059,227.1314,293.8205,217.7009,273.794,204.7739" style="stroke:#181818;stroke-width:1.256281407035176;"/></g><!--reverse link B4 to C2--><g id="link_B4_C2"><path codeLine="21" d="M356.637,227.386 C356.838,249.5719 356.9221,257.4623 357.1357,279.7487 " fill="none" id="B4-backto-C2" style="stroke:#181818;stroke-width:1.256281407035176;"/><polygon fill="none" points="356.4322,204.7739,349.0996,227.4543,364.1744,227.3177,356.4322,204.7739" style="stroke:#181818;stroke-width:1.256281407035176;"/></g><!--reverse link B5 to C2--><g id="link_B5_C2"><path codeLine="22" d="M425.1155,222.5773 C407.7411,244.7632 397.8015,257.4623 380.3518,279.7487 " fill="none" id="B5-backto-C2" style="stroke:#181818;stroke-width:1.256281407035176;"/><polygon fill="none" points="439.0578,204.7739,419.181,217.9299,431.0499,227.2247,439.0578,204.7739" style="stroke:#181818;stroke-width:1.256281407035176;"/></g><!--reverse link B1 to C1--><g id="link_B1_C1"><path codeLine="24" d="M144.6193,227.386 C144.4182,249.5719 144.3342,257.4623 144.1206,279.7487 " fill="none" id="B1-backto-C1" style="stroke:#181818;stroke-width:1.256281407035176;"/><polygon fill="none" points="144.8241,204.7739,137.0819,227.3177,152.1566,227.4543,144.8241,204.7739" style="stroke:#181818;stroke-width:1.256281407035176;"/></g><!--reverse link B2 to C1--><g id="link_B2_C1"><path codeLine="25" d="M213.3166,222.4161 C195.5276,244.602 185.201,257.4623 167.3367,279.7487 " fill="none" id="B2-backto-C1" style="stroke:#181818;stroke-width:1.256281407035176;"/><polygon fill="none" points="227.4623,204.7739,207.4358,217.7009,219.1973,227.1314,227.4623,204.7739" style="stroke:#181818;stroke-width:1.256281407035176;"/></g><!--reverse link B3 to C1--><g id="link_B3_C1"><path codeLine="26" d="M76.1408,222.5773 C93.5152,244.7632 103.4548,257.4623 120.9045,279.7487 " fill="none" id="B3-backto-C1" style="stroke:#181818;stroke-width:1.256281407035176;"/><polygon fill="none" points="62.1985,204.7739,70.2063,227.2247,82.0753,217.9299,62.1985,204.7739" style="stroke:#181818;stroke-width:1.256281407035176;"/></g><!--reverse link A to B5--><g id="link_A_B5"><path codeLine="28" d="M295.6326,68.5984 C334.6025,93.1838 389.0829,127.5628 430.7915,153.8819 " fill="none" id="A-backto-B5" style="stroke:#181818;stroke-width:1.256281407035176;"/><polygon fill="none" points="276.5075,56.5327,291.6107,74.9734,299.6545,62.2233,276.5075,56.5327" style="stroke:#181818;stroke-width:1.256281407035176;"/></g><!--reverse link A to B4--><g id="link_A_B4"><path codeLine="30" d="M287.5718,86.8207 C305.1472,109.0066 315.2764,121.7839 332.9397,144.0704 " fill="none" id="A-backto-B4" style="stroke:#181818;stroke-width:1.256281407035176;"/><polygon fill="none" points="273.5302,69.0955,281.6634,91.5012,293.4802,82.1401,273.5302,69.0955" style="stroke:#181818;stroke-width:1.256281407035176;"/></g><!--reverse link A to B3--><g id="link_A_B3"><path codeLine="32" d="M205.6236,68.5984 C166.6538,93.1838 112.1734,127.5628 70.4648,153.8819 " fill="none" id="A-backto-B3" style="stroke:#181818;stroke-width:1.256281407035176;"/><polygon fill="none" points="224.7487,56.5327,201.6017,62.2233,209.6455,74.9734,224.7487,56.5327" style="stroke:#181818;stroke-width:1.256281407035176;"/></g><!--reverse link A to B2--><g id="link_A_B2"><path codeLine="34" d="M250.6281,91.7085 C250.6281,113.8945 250.6281,121.7839 250.6281,144.0704 " fill="none" id="A-backto-B2" style="stroke:#181818;stroke-width:1.256281407035176;"/><polygon fill="none" points="250.6281,69.0955,243.0905,91.7085,258.1658,91.7085,250.6281,69.0955" style="stroke:#181818;stroke-width:1.256281407035176;"/></g><!--reverse link A to B1--><g id="link_A_B1"><path codeLine="36" d="M213.6845,86.8207 C196.1091,109.0066 185.9799,121.7839 168.3166,144.0704 " fill="none" id="A-backto-B1" style="stroke:#181818;stroke-width:1.256281407035176;"/><polygon fill="none" points="227.7261,69.0955,207.7761,82.1401,219.5929,91.5012,227.7261,69.0955" style="stroke:#181818;stroke-width:1.256281407035176;"/></g><!--SRC=[HSuz2e0m30RGFQV81GhztLpQUX6fWaAt2YuUte19EkMHV0aPRUi79clnkVRxXDQtCJ1pBKxW1K4G1ObH7OeaNIMz0j1uUOqXLgyA8YWyffKIbL0uIoUrJKpAkUXcc1YKa7_Ieyeu6G3LVhOTV000]--></g></svg>