<?xml version="1.0" encoding="us-ascii" standalone="no"?><svg xmlns="http://www.w3.org/2000/svg" xmlns:xlink="http://www.w3.org/1999/xlink" contentStyleType="text/css" height="501.2987px" preserveAspectRatio="none" style="width:497px;height:501px;background:#FFFFFF;" version="1.1" viewBox="0 0 497 501" width="497.4026px" zoomAndPan="magnify"><defs/><g><!--class Tier--><g id="elem_Tier"><rect codeLine="2" fill="#F1F1F1" height="62.3377" id="Tier" rx="3.2468" ry="3.2468" style="stroke:#181818;stroke-width:0.6493506493506493;" width="74.026" x="210.3896" y="9.0909"/><ellipse cx="229.8701" cy="29.8701" fill="#ADD1B2" rx="14.2857" ry="14.2857" style="stroke:#181818;stroke-width:1.2987012987012987;"/><path d="M233.4619,24.513 Q233.6648,24.2289 233.9083,24.0869 Q234.1518,23.9448 234.4359,23.9448 Q234.9229,23.9448 235.2273,24.2898 Q235.5317,24.6144 235.5317,25.4058 L235.5317,27.293 Q235.5317,28.0844 235.2273,28.4294 Q234.9229,28.7744 234.4359,28.7744 Q233.9894,28.7744 233.7256,28.5106 Q233.4619,28.267 233.3198,27.5974 Q233.2589,27.1307 233.0154,26.8872 Q232.5893,26.4002 231.7979,26.1161 Q231.0065,25.832 230.1948,25.832 Q229.2005,25.832 228.3685,26.2581 Q227.5568,26.6843 226.9075,27.6583 Q226.2784,28.6323 226.2784,29.9716 L226.2784,31.392 Q226.2784,32.9951 227.4351,34.0706 Q228.5917,35.1258 230.6615,35.1258 Q231.8791,35.1258 232.7313,34.8011 Q233.2386,34.5982 233.7865,34.03 Q234.1315,33.6851 234.3141,33.5836 Q234.517,33.4821 234.7808,33.4821 Q235.207,33.4821 235.5317,33.8271 Q235.8766,34.1518 235.8766,34.5982 Q235.8766,35.0446 235.4302,35.5722 Q234.7808,36.3231 233.7459,36.7492 Q232.3458,37.3377 230.6615,37.3377 Q228.6932,37.3377 227.1307,36.526 Q225.8523,35.8766 224.9594,34.4968 Q224.0666,33.0966 224.0666,31.4326 L224.0666,29.931 Q224.0666,28.2062 224.858,26.7248 Q225.6696,25.2232 227.0901,24.4318 Q228.5106,23.6201 230.1136,23.6201 Q231.0674,23.6201 231.8994,23.8433 Q232.7516,24.0463 233.4619,24.513 Z " fill="#000000"/><text fill="#000000" font-family="sans-serif" font-size="18.1818" lengthAdjust="spacing" textLength="32.4675" x="248.0519" y="37.3098">Tier</text><line style="stroke:#181818;stroke-width:0.6493506493506493;" x1="211.6883" x2="283.1169" y1="50.6494" y2="50.6494"/><line style="stroke:#181818;stroke-width:0.6493506493506493;" x1="211.6883" x2="283.1169" y1="61.039" y2="61.039"/></g><!--class S?ugetier--><g id="elem_S&#228;ugetier"><rect codeLine="3" fill="#F1F1F1" height="62.3377" id="S&#228;ugetier" rx="3.2468" ry="3.2468" style="stroke:#181818;stroke-width:0.6493506493506493;" width="120.7792" x="187.013" y="149.3506"/><ellipse cx="206.4935" cy="170.1299" fill="#ADD1B2" rx="14.2857" ry="14.2857" style="stroke:#181818;stroke-width:1.2987012987012987;"/><path d="M210.0852,164.7727 Q210.2881,164.4886 210.5317,164.3466 Q210.7752,164.2045 211.0593,164.2045 Q211.5463,164.2045 211.8506,164.5495 Q212.155,164.8742 212.155,165.6656 L212.155,167.5528 Q212.155,168.3442 211.8506,168.6891 Q211.5463,169.0341 211.0593,169.0341 Q210.6128,169.0341 210.349,168.7703 Q210.0852,168.5268 209.9432,167.8571 Q209.8823,167.3904 209.6388,167.1469 Q209.2127,166.6599 208.4213,166.3758 Q207.6299,166.0917 206.8182,166.0917 Q205.8239,166.0917 204.9919,166.5179 Q204.1802,166.944 203.5308,167.918 Q202.9018,168.892 202.9018,170.2313 L202.9018,171.6518 Q202.9018,173.2549 204.0584,174.3304 Q205.2151,175.3856 207.2849,175.3856 Q208.5024,175.3856 209.3547,175.0609 Q209.862,174.858 210.4099,174.2898 Q210.7549,173.9448 210.9375,173.8433 Q211.1404,173.7419 211.4042,173.7419 Q211.8304,173.7419 212.155,174.0869 Q212.5,174.4115 212.5,174.858 Q212.5,175.3044 212.0536,175.832 Q211.4042,176.5828 210.3693,177.0089 Q208.9692,177.5974 207.2849,177.5974 Q205.3166,177.5974 203.7541,176.7857 Q202.4756,176.1364 201.5828,174.7565 Q200.6899,173.3563 200.6899,171.6924 L200.6899,170.1907 Q200.6899,168.4659 201.4813,166.9846 Q202.293,165.483 203.7135,164.6916 Q205.1339,163.8799 206.737,163.8799 Q207.6907,163.8799 208.5227,164.1031 Q209.375,164.306 210.0852,164.7727 Z " fill="#000000"/><text fill="#000000" font-family="sans-serif" font-size="18.1818" lengthAdjust="spacing" textLength="79.2208" x="224.6753" y="177.5695">S&#228;ugetier</text><line style="stroke:#181818;stroke-width:0.6493506493506493;" x1="188.3117" x2="306.4935" y1="190.9091" y2="190.9091"/><line style="stroke:#181818;stroke-width:0.6493506493506493;" x1="188.3117" x2="306.4935" y1="201.2987" y2="201.2987"/></g><!--class Fl?gellosesS?ugetier--><g id="elem_Fl&#252;gellosesS&#228;ugetier"><rect codeLine="4" fill="#F1F1F1" height="62.3377" id="Fl&#252;gellosesS&#228;ugetier" rx="3.2468" ry="3.2468" style="stroke:#181818;stroke-width:0.6493506493506493;" width="214.2857" x="9.0909" y="289.6104"/><ellipse cx="28.5714" cy="310.3896" fill="#ADD1B2" rx="14.2857" ry="14.2857" style="stroke:#181818;stroke-width:1.2987012987012987;"/><path d="M32.1631,305.0325 Q32.3661,304.7484 32.6096,304.6063 Q32.8531,304.4643 33.1372,304.4643 Q33.6242,304.4643 33.9286,304.8093 Q34.233,305.1339 34.233,305.9253 L34.233,307.8125 Q34.233,308.6039 33.9286,308.9489 Q33.6242,309.2938 33.1372,309.2938 Q32.6907,309.2938 32.4269,309.03 Q32.1631,308.7865 32.0211,308.1169 Q31.9602,307.6502 31.7167,307.4067 Q31.2906,306.9196 30.4992,306.6356 Q29.7078,306.3515 28.8961,306.3515 Q27.9018,306.3515 27.0698,306.7776 Q26.2581,307.2037 25.6088,308.1778 Q24.9797,309.1518 24.9797,310.4911 L24.9797,311.9115 Q24.9797,313.5146 26.1364,314.5901 Q27.293,315.6453 29.3628,315.6453 Q30.5804,315.6453 31.4326,315.3206 Q31.9399,315.1177 32.4878,314.5495 Q32.8328,314.2045 33.0154,314.1031 Q33.2183,314.0016 33.4821,314.0016 Q33.9083,314.0016 34.233,314.3466 Q34.5779,314.6713 34.5779,315.1177 Q34.5779,315.5641 34.1315,316.0917 Q33.4821,316.8425 32.4472,317.2687 Q31.0471,317.8571 29.3628,317.8571 Q27.3945,317.8571 25.832,317.0455 Q24.5536,316.3961 23.6607,315.0162 Q22.7679,313.6161 22.7679,311.9521 L22.7679,310.4505 Q22.7679,308.7256 23.5593,307.2443 Q24.3709,305.7427 25.7914,304.9513 Q27.2119,304.1396 28.8149,304.1396 Q29.7687,304.1396 30.6006,304.3628 Q31.4529,304.5657 32.1631,305.0325 Z " fill="#000000"/><text fill="#000000" font-family="sans-serif" font-size="18.1818" lengthAdjust="spacing" textLength="172.7273" x="46.7532" y="317.8292">Fl&#252;gellosesS&#228;ugetier</text><line style="stroke:#181818;stroke-width:0.6493506493506493;" x1="10.3896" x2="222.0779" y1="331.1688" y2="331.1688"/><line style="stroke:#181818;stroke-width:0.6493506493506493;" x1="10.3896" x2="222.0779" y1="341.5584" y2="341.5584"/></g><!--class NichtMeeress?ugetier--><g id="elem_NichtMeeress&#228;ugetier"><rect codeLine="5" fill="#F1F1F1" height="62.3377" id="NichtMeeress&#228;ugetier" rx="3.2468" ry="3.2468" style="stroke:#181818;stroke-width:0.6493506493506493;" width="219.4805" x="268.8312" y="289.6104"/><ellipse cx="288.3117" cy="310.3896" fill="#ADD1B2" rx="14.2857" ry="14.2857" style="stroke:#181818;stroke-width:1.2987012987012987;"/><path d="M291.9034,305.0325 Q292.1063,304.7484 292.3498,304.6063 Q292.5933,304.4643 292.8774,304.4643 Q293.3644,304.4643 293.6688,304.8093 Q293.9732,305.1339 293.9732,305.9253 L293.9732,307.8125 Q293.9732,308.6039 293.6688,308.9489 Q293.3644,309.2938 292.8774,309.2938 Q292.431,309.2938 292.1672,309.03 Q291.9034,308.7865 291.7614,308.1169 Q291.7005,307.6502 291.457,307.4067 Q291.0308,306.9196 290.2394,306.6356 Q289.4481,306.3515 288.6364,306.3515 Q287.642,306.3515 286.8101,306.7776 Q285.9984,307.2037 285.349,308.1778 Q284.72,309.1518 284.72,310.4911 L284.72,311.9115 Q284.72,313.5146 285.8766,314.5901 Q287.0333,315.6453 289.1031,315.6453 Q290.3206,315.6453 291.1729,315.3206 Q291.6802,315.1177 292.2281,314.5495 Q292.5731,314.2045 292.7557,314.1031 Q292.9586,314.0016 293.2224,314.0016 Q293.6485,314.0016 293.9732,314.3466 Q294.3182,314.6713 294.3182,315.1177 Q294.3182,315.5641 293.8718,316.0917 Q293.2224,316.8425 292.1875,317.2687 Q290.7873,317.8571 289.1031,317.8571 Q287.1347,317.8571 285.5722,317.0455 Q284.2938,316.3961 283.401,315.0162 Q282.5081,313.6161 282.5081,311.9521 L282.5081,310.4505 Q282.5081,308.7256 283.2995,307.2443 Q284.1112,305.7427 285.5317,304.9513 Q286.9521,304.1396 288.5552,304.1396 Q289.5089,304.1396 290.3409,304.3628 Q291.1932,304.5657 291.9034,305.0325 Z " fill="#000000"/><text fill="#000000" font-family="sans-serif" font-size="18.1818" lengthAdjust="spacing" textLength="177.9221" x="306.4935" y="317.8292">NichtMeeress&#228;ugetier</text><line style="stroke:#181818;stroke-width:0.6493506493506493;" x1="270.1299" x2="487.013" y1="331.1688" y2="331.1688"/><line style="stroke:#181818;stroke-width:0.6493506493506493;" x1="270.1299" x2="487.013" y1="341.5584" y2="341.5584"/></g><!--class Hund--><g id="elem_Hund"><rect codeLine="6" fill="#F1F1F1" height="62.3377" id="Hund" rx="3.2468" ry="3.2468" style="stroke:#181818;stroke-width:0.6493506493506493;" width="84.4156" x="205.1948" y="429.8701"/><ellipse cx="224.6753" cy="450.6494" fill="#ADD1B2" rx="14.2857" ry="14.2857" style="stroke:#181818;stroke-width:1.2987012987012987;"/><path d="M228.267,445.2922 Q228.47,445.0081 228.7135,444.8661 Q228.957,444.724 229.2411,444.724 Q229.7281,444.724 230.0325,445.069 Q230.3369,445.3937 230.3369,446.1851 L230.3369,448.0722 Q230.3369,448.8636 230.0325,449.2086 Q229.7281,449.5536 229.2411,449.5536 Q228.7946,449.5536 228.5308,449.2898 Q228.267,449.0463 228.125,448.3766 Q228.0641,447.9099 227.8206,447.6664 Q227.3945,447.1794 226.6031,446.8953 Q225.8117,446.6112 225,446.6112 Q224.0057,446.6112 223.1737,447.0373 Q222.362,447.4635 221.7127,448.4375 Q221.0836,449.4115 221.0836,450.7508 L221.0836,452.1713 Q221.0836,453.7744 222.2403,454.8498 Q223.3969,455.905 225.4667,455.905 Q226.6843,455.905 227.5365,455.5804 Q228.0438,455.3774 228.5917,454.8093 Q228.9367,454.4643 229.1193,454.3628 Q229.3222,454.2614 229.586,454.2614 Q230.0122,454.2614 230.3369,454.6063 Q230.6818,454.931 230.6818,455.3774 Q230.6818,455.8239 230.2354,456.3515 Q229.586,457.1023 228.5511,457.5284 Q227.151,458.1169 225.4667,458.1169 Q223.4984,458.1169 221.9359,457.3052 Q220.6575,456.6558 219.7646,455.276 Q218.8718,453.8758 218.8718,452.2119 L218.8718,450.7102 Q218.8718,448.9854 219.6631,447.5041 Q220.4748,446.0024 221.8953,445.211 Q223.3157,444.3994 224.9188,444.3994 Q225.8726,444.3994 226.7045,444.6226 Q227.5568,444.8255 228.267,445.2922 Z " fill="#000000"/><text fill="#000000" font-family="sans-serif" font-size="18.1818" lengthAdjust="spacing" textLength="42.8571" x="242.8571" y="458.089">Hund</text><line style="stroke:#181818;stroke-width:0.6493506493506493;" x1="206.4935" x2="288.3117" y1="471.4286" y2="471.4286"/><line style="stroke:#181818;stroke-width:0.6493506493506493;" x1="206.4935" x2="288.3117" y1="481.8182" y2="481.8182"/></g><!--reverse link Fl?gellosesS?ugetier to Hund--><g id="link_Fl&#252;gellosesS&#228;ugetier_Hund"><path codeLine="8" d="M160.8236,368.8755 C182.6677,391.8106 196.5974,406.4156 218.5455,429.4545 " fill="none" id="Fl&#252;gellosesS&#228;ugetier-backto-Hund" style="stroke:#181818;stroke-width:1.2987012987012987;"/><polygon fill="none" points="144.7013,351.9481,155.1811,374.2496,166.4661,363.5014,144.7013,351.9481" style="stroke:#181818;stroke-width:1.2987012987012987;"/></g><!--reverse link NichtMeeress?ugetier to Hund--><g id="link_NichtMeeress&#228;ugetier_Hund"><path codeLine="9" d="M333.9816,368.8755 C312.1375,391.8106 298.2078,406.4156 276.2597,429.4545 " fill="none" id="NichtMeeress&#228;ugetier-backto-Hund" style="stroke:#181818;stroke-width:1.2987012987012987;"/><polygon fill="none" points="350.1039,351.9481,328.3391,363.5014,339.6241,374.2496,350.1039,351.9481" style="stroke:#181818;stroke-width:1.2987012987012987;"/></g><!--reverse link S?ugetier to Fl?gellosesS?ugetier--><g id="link_S&#228;ugetier_Fl&#252;gellosesS&#228;ugetier"><path codeLine="10" d="M202.8128,228.6158 C180.9686,251.5508 167.039,266.1558 145.0909,289.1948 " fill="none" id="S&#228;ugetier-backto-Fl&#252;gellosesS&#228;ugetier" style="stroke:#181818;stroke-width:1.2987012987012987;"/><polygon fill="none" points="218.9351,211.6883,197.1703,223.2417,208.4553,233.9899,218.9351,211.6883" style="stroke:#181818;stroke-width:1.2987012987012987;"/></g><!--reverse link S?ugetier to NichtMeeress?ugetier--><g id="link_S&#228;ugetier_NichtMeeress&#228;ugetier"><path codeLine="11" d="M291.9924,228.6158 C313.8366,251.5508 327.7662,266.1558 349.7143,289.1948 " fill="none" id="S&#228;ugetier-backto-NichtMeeress&#228;ugetier" style="stroke:#181818;stroke-width:1.2987012987012987;"/><polygon fill="none" points="275.8701,211.6883,286.3499,233.9899,297.6349,223.2417,275.8701,211.6883" style="stroke:#181818;stroke-width:1.2987012987012987;"/></g><!--reverse link Tier to S?ugetier--><g id="link_Tier_S&#228;ugetier"><path codeLine="12" d="M247.4026,94.8052 C247.4026,117.7403 247.4026,125.8961 247.4026,148.9351 " fill="none" id="Tier-backto-S&#228;ugetier" style="stroke:#181818;stroke-width:1.2987012987012987;"/><polygon fill="none" points="247.4026,71.4286,239.6104,94.8052,255.1948,94.8052,247.4026,71.4286" style="stroke:#181818;stroke-width:1.2987012987012987;"/></g><!--SRC=[AqvEp4bLC3KmKCX8pKpFAE5ApaaiBbO8oKmjWZA33oyfJKyjGGYuvHpUavwQavDVd5gC8UcNcPnHufkQMfHQN8mkvr6QbyB5XLsxWasDhYv41LOZaEJHDU5m3xeox2uBWSiZr0C0]--></g></svg>