<?xml version="1.0" encoding="us-ascii" standalone="no"?><svg xmlns="http://www.w3.org/2000/svg" xmlns:xlink="http://www.w3.org/1999/xlink" contentStyleType="text/css" height="191.4634px" preserveAspectRatio="none" style="width:151px;height:191px;background:#FFFFFF;" version="1.1" viewBox="0 0 151 191" width="151.2195px" zoomAndPan="magnify"><defs/><g><!--class Geld--><g id="elem_Geld"><rect codeLine="4" fill="#F1F1F1" height="165.9108" id="Geld" rx="3.0488" ry="3.0488" style="stroke:#181818;stroke-width:0.6097560975609756;" width="125.6098" x="8.5366" y="8.5366"/><ellipse cx="49.3293" cy="28.0488" fill="#ADD1B2" rx="13.4146" ry="13.4146" style="stroke:#181818;stroke-width:1.2195121951219512;"/><path d="M52.702,23.0183 Q52.8925,22.7515 53.1212,22.6181 Q53.3498,22.4848 53.6166,22.4848 Q54.0739,22.4848 54.3598,22.8087 Q54.6456,23.1136 54.6456,23.8567 L54.6456,25.6288 Q54.6456,26.372 54.3598,26.6959 Q54.0739,27.0198 53.6166,27.0198 Q53.1974,27.0198 52.9497,26.7721 Q52.702,26.5434 52.5686,25.9146 Q52.5114,25.4764 52.2828,25.2477 Q51.8826,24.7904 51.1395,24.5236 Q50.3963,24.2569 49.6341,24.2569 Q48.7005,24.2569 47.9192,24.657 Q47.157,25.0572 46.5473,25.9718 Q45.9566,26.8864 45.9566,28.1441 L45.9566,29.4779 Q45.9566,30.9832 47.0427,31.9931 Q48.1288,32.984 50.0724,32.984 Q51.2157,32.984 52.016,32.6791 Q52.4924,32.4886 53.0069,31.955 Q53.3308,31.6311 53.5023,31.5358 Q53.6928,31.4405 53.9405,31.4405 Q54.3407,31.4405 54.6456,31.7645 Q54.9695,32.0694 54.9695,32.4886 Q54.9695,32.9078 54.5503,33.4032 Q53.9405,34.1082 52.9688,34.5084 Q51.654,35.061 50.0724,35.061 Q48.2241,35.061 46.7569,34.2988 Q45.5564,33.689 44.718,32.3933 Q43.8796,31.0785 43.8796,29.516 L43.8796,28.1059 Q43.8796,26.4863 44.6227,25.0953 Q45.3849,23.6852 46.7188,22.9421 Q48.0526,22.1799 49.5579,22.1799 Q50.4535,22.1799 51.2348,22.3895 Q52.0351,22.58 52.702,23.0183 Z " fill="#000000"/><text fill="#000000" font-family="sans-serif" font-size="17.0732" lengthAdjust="spacing" textLength="36.5854" x="71.4024" y="35.0348">Geld</text><line style="stroke:#181818;stroke-width:0.6097560975609756;" x1="9.7561" x2="132.9268" y1="47.561" y2="47.561"/><text fill="#000000" font-family="sans-serif" font-size="17.0732" lengthAdjust="spacing" text-decoration="underline" textLength="93.9024" x="32.9268" y="70.1624">wechselkurs</text><rect fill="none" height="7.3171" style="stroke:#C82930;stroke-width:1.2195121951219512;" width="7.3171" x="18.2927" y="82.822"/><text fill="#000000" font-family="sans-serif" font-size="17.0732" lengthAdjust="spacing" textLength="50" x="32.9268" y="91.6373">betrag</text><rect fill="none" height="7.3171" style="stroke:#C82930;stroke-width:1.2195121951219512;" width="7.3171" x="18.2927" y="104.2969"/><text fill="#000000" font-family="sans-serif" font-size="17.0732" lengthAdjust="spacing" textLength="75.6098" x="32.9268" y="113.1121">waehrung</text><line style="stroke:#181818;stroke-width:0.6097560975609756;" x1="9.7561" x2="132.9268" y1="121.7416" y2="121.7416"/><ellipse cx="21.9512" cy="139.1864" fill="#84BE84" rx="3.6585" ry="3.6585" style="stroke:#038048;stroke-width:1.2195121951219512;"/><text fill="#000000" font-family="sans-serif" font-size="17.0732" lengthAdjust="spacing" textLength="41.4634" x="32.9268" y="144.3431">add()</text><ellipse cx="21.9512" cy="160.6612" fill="#84BE84" rx="3.6585" ry="3.6585" style="stroke:#038048;stroke-width:1.2195121951219512;"/><text fill="#000000" font-family="sans-serif" font-size="17.0732" lengthAdjust="spacing" textLength="73.1707" x="32.9268" y="165.8179">getEuro()</text></g><!--SRC=[BSb12e0W40NGlQUOPH51BJf2T8v9XvIam1bn8TuzqVxYyn-VDNg2TLiWEIDMAQKzCiD1tcG5DPa5nUa2YRHbydSCt8uPJfA0ru-4P4DyEbjDQCmmzdcHx36ybUK3]--></g></svg>