<?xml version="1.0" encoding="us-ascii" standalone="no"?><svg xmlns="http://www.w3.org/2000/svg" xmlns:xlink="http://www.w3.org/1999/xlink" contentStyleType="text/css" height="500.8923px" preserveAspectRatio="none" style="width:1160px;height:500px;background:#FFFFFF;" version="1.1" viewBox="0 0 1160 500" width="1160.0335px" zoomAndPan="magnify"><defs/><g><!--class Basis1--><g id="elem_Basis1"><rect codeLine="2" fill="#F1F1F1" height="66.0517" id="Basis1" rx="3.4402" ry="3.4402" style="stroke:#181818;stroke-width:0.688038874196392;" width="101.8298" x="577.9527" y="158.2489"/><ellipse cx="598.5938" cy="180.2662" fill="#ADD1B2" rx="15.1369" ry="15.1369" style="stroke:#181818;stroke-width:1.376077748392784;"/><path d="M602.3995,174.5899 Q602.6145,174.2888 602.8726,174.1383 Q603.1306,173.9878 603.4316,173.9878 Q603.9476,173.9878 604.2701,174.3534 Q604.5927,174.6974 604.5927,175.5359 L604.5927,177.5355 Q604.5927,178.3741 604.2701,178.7396 Q603.9476,179.1051 603.4316,179.1051 Q602.9586,179.1051 602.6791,178.8256 Q602.3995,178.5676 602.249,177.858 Q602.1845,177.3635 601.9265,177.1055 Q601.475,176.5895 600.6364,176.2885 Q599.7979,175.9874 598.9378,175.9874 Q597.8843,175.9874 597.0027,176.439 Q596.1427,176.8905 595.4546,177.9226 Q594.7881,178.9546 594.7881,180.3737 L594.7881,181.8788 Q594.7881,183.5774 596.0137,184.7169 Q597.2392,185.835 599.4324,185.835 Q600.7224,185.835 601.6255,185.491 Q602.163,185.276 602.7436,184.6739 Q603.1091,184.3084 603.3026,184.2009 Q603.5176,184.0934 603.7971,184.0934 Q604.2486,184.0934 604.5927,184.4589 Q604.9582,184.8029 604.9582,185.276 Q604.9582,185.749 604.4852,186.308 Q603.7971,187.1036 602.7006,187.5551 Q601.217,188.1786 599.4324,188.1786 Q597.3468,188.1786 595.6912,187.3186 Q594.3366,186.6305 593.3905,185.1685 Q592.4445,183.6849 592.4445,181.9218 L592.4445,180.3307 Q592.4445,178.5031 593.283,176.9335 Q594.1431,175.3424 595.6482,174.5039 Q597.1532,173.6438 598.8518,173.6438 Q599.8624,173.6438 600.7439,173.8803 Q601.647,174.0953 602.3995,174.5899 Z " fill="#000000"/><text fill="#000000" font-family="sans-serif" font-size="19.2651" lengthAdjust="spacing" textLength="57.7953" x="617.8589" y="188.1491">Basis1</text><line style="stroke:#181818;stroke-width:0.688038874196392;" x1="579.3287" x2="678.4063" y1="202.2834" y2="202.2834"/><line style="stroke:#181818;stroke-width:0.688038874196392;" x1="579.3287" x2="678.4063" y1="213.2921" y2="213.2921"/></g><!--class Basis2--><g id="elem_Basis2"><rect codeLine="3" fill="#F1F1F1" height="66.0517" id="Basis2" rx="3.4402" ry="3.4402" style="stroke:#181818;stroke-width:0.688038874196392;" width="101.8298" x="257.3265" y="158.2489"/><ellipse cx="277.9677" cy="180.2662" fill="#ADD1B2" rx="15.1369" ry="15.1369" style="stroke:#181818;stroke-width:1.376077748392784;"/><path d="M281.7734,174.5899 Q281.9884,174.2888 282.2464,174.1383 Q282.5045,173.9878 282.8055,173.9878 Q283.3215,173.9878 283.644,174.3534 Q283.9665,174.6974 283.9665,175.5359 L283.9665,177.5355 Q283.9665,178.3741 283.644,178.7396 Q283.3215,179.1051 282.8055,179.1051 Q282.3325,179.1051 282.0529,178.8256 Q281.7734,178.5676 281.6229,177.858 Q281.5584,177.3635 281.3004,177.1055 Q280.8489,176.5895 280.0103,176.2885 Q279.1718,175.9874 278.3117,175.9874 Q277.2582,175.9874 276.3766,176.439 Q275.5166,176.8905 274.8285,177.9226 Q274.162,178.9546 274.162,180.3737 L274.162,181.8788 Q274.162,183.5774 275.3876,184.7169 Q276.6131,185.835 278.8063,185.835 Q280.0963,185.835 280.9994,185.491 Q281.5369,185.276 282.1174,184.6739 Q282.483,184.3084 282.6765,184.2009 Q282.8915,184.0934 283.171,184.0934 Q283.6225,184.0934 283.9665,184.4589 Q284.3321,184.8029 284.3321,185.276 Q284.3321,185.749 283.859,186.308 Q283.171,187.1036 282.0744,187.5551 Q280.5909,188.1786 278.8063,188.1786 Q276.7206,188.1786 275.065,187.3186 Q273.7105,186.6305 272.7644,185.1685 Q271.8184,183.6849 271.8184,181.9218 L271.8184,180.3307 Q271.8184,178.5031 272.6569,176.9335 Q273.517,175.3424 275.022,174.5039 Q276.5271,173.6438 278.2257,173.6438 Q279.2363,173.6438 280.1178,173.8803 Q281.0209,174.0953 281.7734,174.5899 Z " fill="#000000"/><text fill="#000000" font-family="sans-serif" font-size="19.2651" lengthAdjust="spacing" textLength="57.7953" x="297.2328" y="188.1491">Basis2</text><line style="stroke:#181818;stroke-width:0.688038874196392;" x1="258.7026" x2="357.7802" y1="202.2834" y2="202.2834"/><line style="stroke:#181818;stroke-width:0.688038874196392;" x1="258.7026" x2="357.7802" y1="213.2921" y2="213.2921"/></g><!--class Basis11--><g id="elem_Basis11"><rect codeLine="4" fill="#F1F1F1" height="66.0517" id="Basis11" rx="3.4402" ry="3.4402" style="stroke:#181818;stroke-width:0.688038874196392;" width="112.8384" x="492.6358" y="9.6325"/><ellipse cx="513.277" cy="31.6498" fill="#ADD1B2" rx="15.1369" ry="15.1369" style="stroke:#181818;stroke-width:1.376077748392784;"/><path d="M517.0827,25.9735 Q517.2977,25.6725 517.5557,25.5219 Q517.8138,25.3714 518.1148,25.3714 Q518.6308,25.3714 518.9533,25.737 Q519.2758,26.081 519.2758,26.9195 L519.2758,28.9191 Q519.2758,29.7577 518.9533,30.1232 Q518.6308,30.4887 518.1148,30.4887 Q517.6417,30.4887 517.3622,30.2092 Q517.0827,29.9512 516.9322,29.2417 Q516.8677,28.7471 516.6097,28.4891 Q516.1582,27.9731 515.3196,27.6721 Q514.4811,27.371 513.621,27.371 Q512.5675,27.371 511.6859,27.8226 Q510.8259,28.2741 510.1378,29.3062 Q509.4713,30.3382 509.4713,31.7573 L509.4713,33.2624 Q509.4713,34.961 510.6969,36.1005 Q511.9224,37.2186 514.1155,37.2186 Q515.4056,37.2186 516.3087,36.8746 Q516.8462,36.6596 517.4267,36.0575 Q517.7923,35.692 517.9858,35.5845 Q518.2008,35.477 518.4803,35.477 Q518.9318,35.477 519.2758,35.8425 Q519.6414,36.1865 519.6414,36.6596 Q519.6414,37.1326 519.1683,37.6916 Q518.4803,38.4872 517.3837,38.9387 Q515.9001,39.5622 514.1155,39.5622 Q512.0299,39.5622 510.3743,38.7022 Q509.0198,38.0141 508.0737,36.5521 Q507.1277,35.0685 507.1277,33.3054 L507.1277,31.7143 Q507.1277,29.8867 507.9662,28.3171 Q508.8262,26.726 510.3313,25.8875 Q511.8364,25.0274 513.535,25.0274 Q514.5456,25.0274 515.4271,25.2639 Q516.3302,25.4789 517.0827,25.9735 Z " fill="#000000"/><text fill="#000000" font-family="sans-serif" font-size="19.2651" lengthAdjust="spacing" textLength="68.8039" x="532.5421" y="39.5327">Basis11</text><line style="stroke:#181818;stroke-width:0.688038874196392;" x1="494.0119" x2="604.0981" y1="53.667" y2="53.667"/><line style="stroke:#181818;stroke-width:0.688038874196392;" x1="494.0119" x2="604.0981" y1="64.6757" y2="64.6757"/></g><!--class Basis12--><g id="elem_Basis12"><rect codeLine="5" fill="#F1F1F1" height="66.0517" id="Basis12" rx="3.4402" ry="3.4402" style="stroke:#181818;stroke-width:0.688038874196392;" width="112.8384" x="653.6369" y="9.6325"/><ellipse cx="674.2781" cy="31.6498" fill="#ADD1B2" rx="15.1369" ry="15.1369" style="stroke:#181818;stroke-width:1.376077748392784;"/><path d="M678.0838,25.9735 Q678.2988,25.6725 678.5568,25.5219 Q678.8149,25.3714 679.1159,25.3714 Q679.6319,25.3714 679.9544,25.737 Q680.2769,26.081 680.2769,26.9195 L680.2769,28.9191 Q680.2769,29.7577 679.9544,30.1232 Q679.6319,30.4887 679.1159,30.4887 Q678.6428,30.4887 678.3633,30.2092 Q678.0838,29.9512 677.9333,29.2417 Q677.8688,28.7471 677.6108,28.4891 Q677.1593,27.9731 676.3207,27.6721 Q675.4822,27.371 674.6221,27.371 Q673.5686,27.371 672.687,27.8226 Q671.827,28.2741 671.1389,29.3062 Q670.4724,30.3382 670.4724,31.7573 L670.4724,33.2624 Q670.4724,34.961 671.698,36.1005 Q672.9235,37.2186 675.1166,37.2186 Q676.4067,37.2186 677.3098,36.8746 Q677.8473,36.6596 678.4278,36.0575 Q678.7934,35.692 678.9869,35.5845 Q679.2019,35.477 679.4814,35.477 Q679.9329,35.477 680.2769,35.8425 Q680.6425,36.1865 680.6425,36.6596 Q680.6425,37.1326 680.1694,37.6916 Q679.4814,38.4872 678.3848,38.9387 Q676.9012,39.5622 675.1166,39.5622 Q673.031,39.5622 671.3754,38.7022 Q670.0209,38.0141 669.0748,36.5521 Q668.1287,35.0685 668.1287,33.3054 L668.1287,31.7143 Q668.1287,29.8867 668.9673,28.3171 Q669.8273,26.726 671.3324,25.8875 Q672.8375,25.0274 674.5361,25.0274 Q675.5467,25.0274 676.4282,25.2639 Q677.3313,25.4789 678.0838,25.9735 Z " fill="#000000"/><text fill="#000000" font-family="sans-serif" font-size="19.2651" lengthAdjust="spacing" textLength="68.8039" x="693.5432" y="39.5327">Basis12</text><line style="stroke:#181818;stroke-width:0.688038874196392;" x1="655.013" x2="765.0992" y1="53.667" y2="53.667"/><line style="stroke:#181818;stroke-width:0.688038874196392;" x1="655.013" x2="765.0992" y1="64.6757" y2="64.6757"/></g><!--class Basis13--><g id="elem_Basis13"><rect codeLine="6" fill="#F1F1F1" height="66.0517" id="Basis13" rx="3.4402" ry="3.4402" style="stroke:#181818;stroke-width:0.688038874196392;" width="112.8384" x="814.638" y="9.6325"/><ellipse cx="835.2792" cy="31.6498" fill="#ADD1B2" rx="15.1369" ry="15.1369" style="stroke:#181818;stroke-width:1.376077748392784;"/><path d="M839.0849,25.9735 Q839.2999,25.6725 839.5579,25.5219 Q839.8159,25.3714 840.117,25.3714 Q840.633,25.3714 840.9555,25.737 Q841.278,26.081 841.278,26.9195 L841.278,28.9191 Q841.278,29.7577 840.9555,30.1232 Q840.633,30.4887 840.117,30.4887 Q839.6439,30.4887 839.3644,30.2092 Q839.0849,29.9512 838.9344,29.2417 Q838.8699,28.7471 838.6119,28.4891 Q838.1604,27.9731 837.3218,27.6721 Q836.4833,27.371 835.6232,27.371 Q834.5697,27.371 833.6881,27.8226 Q832.8281,28.2741 832.14,29.3062 Q831.4735,30.3382 831.4735,31.7573 L831.4735,33.2624 Q831.4735,34.961 832.699,36.1005 Q833.9246,37.2186 836.1177,37.2186 Q837.4078,37.2186 838.3109,36.8746 Q838.8484,36.6596 839.4289,36.0575 Q839.7944,35.692 839.988,35.5845 Q840.203,35.477 840.4825,35.477 Q840.934,35.477 841.278,35.8425 Q841.6436,36.1865 841.6436,36.6596 Q841.6436,37.1326 841.1705,37.6916 Q840.4825,38.4872 839.3859,38.9387 Q837.9023,39.5622 836.1177,39.5622 Q834.0321,39.5622 832.3765,38.7022 Q831.022,38.0141 830.0759,36.5521 Q829.1298,35.0685 829.1298,33.3054 L829.1298,31.7143 Q829.1298,29.8867 829.9684,28.3171 Q830.8284,26.726 832.3335,25.8875 Q833.8386,25.0274 835.5372,25.0274 Q836.5478,25.0274 837.4293,25.2639 Q838.3324,25.4789 839.0849,25.9735 Z " fill="#000000"/><text fill="#000000" font-family="sans-serif" font-size="19.2651" lengthAdjust="spacing" textLength="68.8039" x="854.5443" y="39.5327">Basis13</text><line style="stroke:#181818;stroke-width:0.688038874196392;" x1="816.0141" x2="926.1003" y1="53.667" y2="53.667"/><line style="stroke:#181818;stroke-width:0.688038874196392;" x1="816.0141" x2="926.1003" y1="64.6757" y2="64.6757"/></g><!--class Basis21--><g id="elem_Basis21"><rect codeLine="7" fill="#F1F1F1" height="66.0517" id="Basis21" rx="3.4402" ry="3.4402" style="stroke:#181818;stroke-width:0.688038874196392;" width="112.8384" x="9.6325" y="9.6325"/><ellipse cx="30.2737" cy="31.6498" fill="#ADD1B2" rx="15.1369" ry="15.1369" style="stroke:#181818;stroke-width:1.376077748392784;"/><path d="M34.0794,25.9735 Q34.2944,25.6725 34.5525,25.5219 Q34.8105,25.3714 35.1115,25.3714 Q35.6275,25.3714 35.95,25.737 Q36.2725,26.081 36.2725,26.9195 L36.2725,28.9191 Q36.2725,29.7577 35.95,30.1232 Q35.6275,30.4887 35.1115,30.4887 Q34.6385,30.4887 34.3589,30.2092 Q34.0794,29.9512 33.9289,29.2417 Q33.8644,28.7471 33.6064,28.4891 Q33.1549,27.9731 32.3163,27.6721 Q31.4778,27.371 30.6177,27.371 Q29.5642,27.371 28.6826,27.8226 Q27.8226,28.2741 27.1345,29.3062 Q26.468,30.3382 26.468,31.7573 L26.468,33.2624 Q26.468,34.961 27.6936,36.1005 Q28.9191,37.2186 31.1123,37.2186 Q32.4023,37.2186 33.3054,36.8746 Q33.8429,36.6596 34.4234,36.0575 Q34.789,35.692 34.9825,35.5845 Q35.1975,35.477 35.477,35.477 Q35.9285,35.477 36.2725,35.8425 Q36.6381,36.1865 36.6381,36.6596 Q36.6381,37.1326 36.165,37.6916 Q35.477,38.4872 34.3804,38.9387 Q32.8969,39.5622 31.1123,39.5622 Q29.0266,39.5622 27.371,38.7022 Q26.0165,38.0141 25.0704,36.5521 Q24.1244,35.0685 24.1244,33.3054 L24.1244,31.7143 Q24.1244,29.8867 24.9629,28.3171 Q25.823,26.726 27.328,25.8875 Q28.8331,25.0274 30.5317,25.0274 Q31.5423,25.0274 32.4238,25.2639 Q33.3269,25.4789 34.0794,25.9735 Z " fill="#000000"/><text fill="#000000" font-family="sans-serif" font-size="19.2651" lengthAdjust="spacing" textLength="68.8039" x="49.5388" y="39.5327">Basis21</text><line style="stroke:#181818;stroke-width:0.688038874196392;" x1="11.0086" x2="121.0948" y1="53.667" y2="53.667"/><line style="stroke:#181818;stroke-width:0.688038874196392;" x1="11.0086" x2="121.0948" y1="64.6757" y2="64.6757"/></g><!--class Basis22--><g id="elem_Basis22"><rect codeLine="8" fill="#F1F1F1" height="66.0517" id="Basis22" rx="3.4402" ry="3.4402" style="stroke:#181818;stroke-width:0.688038874196392;" width="112.8384" x="170.6336" y="9.6325"/><ellipse cx="191.2748" cy="31.6498" fill="#ADD1B2" rx="15.1369" ry="15.1369" style="stroke:#181818;stroke-width:1.376077748392784;"/><path d="M195.0805,25.9735 Q195.2955,25.6725 195.5535,25.5219 Q195.8116,25.3714 196.1126,25.3714 Q196.6286,25.3714 196.9511,25.737 Q197.2736,26.081 197.2736,26.9195 L197.2736,28.9191 Q197.2736,29.7577 196.9511,30.1232 Q196.6286,30.4887 196.1126,30.4887 Q195.6396,30.4887 195.36,30.2092 Q195.0805,29.9512 194.93,29.2417 Q194.8655,28.7471 194.6075,28.4891 Q194.156,27.9731 193.3174,27.6721 Q192.4789,27.371 191.6188,27.371 Q190.5653,27.371 189.6837,27.8226 Q188.8237,28.2741 188.1356,29.3062 Q187.4691,30.3382 187.4691,31.7573 L187.4691,33.2624 Q187.4691,34.961 188.6947,36.1005 Q189.9202,37.2186 192.1134,37.2186 Q193.4034,37.2186 194.3065,36.8746 Q194.844,36.6596 195.4245,36.0575 Q195.7901,35.692 195.9836,35.5845 Q196.1986,35.477 196.4781,35.477 Q196.9296,35.477 197.2736,35.8425 Q197.6392,36.1865 197.6392,36.6596 Q197.6392,37.1326 197.1661,37.6916 Q196.4781,38.4872 195.3815,38.9387 Q193.898,39.5622 192.1134,39.5622 Q190.0277,39.5622 188.3721,38.7022 Q187.0176,38.0141 186.0715,36.5521 Q185.1255,35.0685 185.1255,33.3054 L185.1255,31.7143 Q185.1255,29.8867 185.964,28.3171 Q186.8241,26.726 188.3291,25.8875 Q189.8342,25.0274 191.5328,25.0274 Q192.5434,25.0274 193.4249,25.2639 Q194.328,25.4789 195.0805,25.9735 Z " fill="#000000"/><text fill="#000000" font-family="sans-serif" font-size="19.2651" lengthAdjust="spacing" textLength="68.8039" x="210.5399" y="39.5327">Basis22</text><line style="stroke:#181818;stroke-width:0.688038874196392;" x1="172.0097" x2="282.0959" y1="53.667" y2="53.667"/><line style="stroke:#181818;stroke-width:0.688038874196392;" x1="172.0097" x2="282.0959" y1="64.6757" y2="64.6757"/></g><!--class Basis23--><g id="elem_Basis23"><rect codeLine="9" fill="#F1F1F1" height="66.0517" id="Basis23" rx="3.4402" ry="3.4402" style="stroke:#181818;stroke-width:0.688038874196392;" width="112.8384" x="331.6347" y="9.6325"/><ellipse cx="352.2759" cy="31.6498" fill="#ADD1B2" rx="15.1369" ry="15.1369" style="stroke:#181818;stroke-width:1.376077748392784;"/><path d="M356.0816,25.9735 Q356.2966,25.6725 356.5546,25.5219 Q356.8127,25.3714 357.1137,25.3714 Q357.6297,25.3714 357.9522,25.737 Q358.2747,26.081 358.2747,26.9195 L358.2747,28.9191 Q358.2747,29.7577 357.9522,30.1232 Q357.6297,30.4887 357.1137,30.4887 Q356.6407,30.4887 356.3611,30.2092 Q356.0816,29.9512 355.9311,29.2417 Q355.8666,28.7471 355.6086,28.4891 Q355.1571,27.9731 354.3185,27.6721 Q353.48,27.371 352.6199,27.371 Q351.5664,27.371 350.6848,27.8226 Q349.8248,28.2741 349.1367,29.3062 Q348.4702,30.3382 348.4702,31.7573 L348.4702,33.2624 Q348.4702,34.961 349.6958,36.1005 Q350.9213,37.2186 353.1145,37.2186 Q354.4045,37.2186 355.3076,36.8746 Q355.8451,36.6596 356.4256,36.0575 Q356.7912,35.692 356.9847,35.5845 Q357.1997,35.477 357.4792,35.477 Q357.9307,35.477 358.2747,35.8425 Q358.6403,36.1865 358.6403,36.6596 Q358.6403,37.1326 358.1672,37.6916 Q357.4792,38.4872 356.3826,38.9387 Q354.8991,39.5622 353.1145,39.5622 Q351.0288,39.5622 349.3732,38.7022 Q348.0187,38.0141 347.0726,36.5521 Q346.1266,35.0685 346.1266,33.3054 L346.1266,31.7143 Q346.1266,29.8867 346.9651,28.3171 Q347.8252,26.726 349.3302,25.8875 Q350.8353,25.0274 352.5339,25.0274 Q353.5445,25.0274 354.426,25.2639 Q355.3291,25.4789 356.0816,25.9735 Z " fill="#000000"/><text fill="#000000" font-family="sans-serif" font-size="19.2651" lengthAdjust="spacing" textLength="68.8039" x="371.541" y="39.5327">Basis23</text><line style="stroke:#181818;stroke-width:0.688038874196392;" x1="333.0108" x2="443.097" y1="53.667" y2="53.667"/><line style="stroke:#181818;stroke-width:0.688038874196392;" x1="333.0108" x2="443.097" y1="64.6757" y2="64.6757"/></g><!--class Unterklasse1--><g id="elem_Unterklasse1"><rect codeLine="10" fill="#F1F1F1" height="66.0517" id="Unterklasse1" rx="3.4402" ry="3.4402" style="stroke:#181818;stroke-width:0.688038874196392;" width="156.8729" x="470.6186" y="306.8653"/><ellipse cx="491.2598" cy="328.8826" fill="#ADD1B2" rx="15.1369" ry="15.1369" style="stroke:#181818;stroke-width:1.376077748392784;"/><path d="M495.0655,323.2063 Q495.2805,322.9052 495.5385,322.7547 Q495.7965,322.6042 496.0975,322.6042 Q496.6136,322.6042 496.9361,322.9697 Q497.2586,323.3138 497.2586,324.1523 L497.2586,326.1519 Q497.2586,326.9905 496.9361,327.356 Q496.6136,327.7215 496.0975,327.7215 Q495.6245,327.7215 495.345,327.442 Q495.0655,327.184 494.915,326.4744 Q494.8505,325.9799 494.5924,325.7219 Q494.1409,325.2059 493.3024,324.9049 Q492.4638,324.6038 491.6038,324.6038 Q490.5502,324.6038 489.6687,325.0554 Q488.8086,325.5069 488.1206,326.5389 Q487.454,327.571 487.454,328.9901 L487.454,330.4952 Q487.454,332.1938 488.6796,333.3333 Q489.9052,334.4514 492.0983,334.4514 Q493.3884,334.4514 494.2914,334.1074 Q494.829,333.8924 495.4095,333.2903 Q495.775,332.9248 495.9685,332.8173 Q496.1835,332.7098 496.4631,332.7098 Q496.9146,332.7098 497.2586,333.0753 Q497.6241,333.4193 497.6241,333.8924 Q497.6241,334.3654 497.1511,334.9244 Q496.4631,335.72 495.3665,336.1715 Q493.8829,336.795 492.0983,336.795 Q490.0127,336.795 488.3571,335.935 Q487.0025,335.2469 486.0565,333.7849 Q485.1104,332.3013 485.1104,330.5382 L485.1104,328.9471 Q485.1104,327.1195 485.949,325.5499 Q486.809,323.9588 488.3141,323.1203 Q489.8192,322.2602 491.5178,322.2602 Q492.5283,322.2602 493.4099,322.4967 Q494.3129,322.7117 495.0655,323.2063 Z " fill="#000000"/><text fill="#000000" font-family="sans-serif" font-size="19.2651" lengthAdjust="spacing" textLength="112.8384" x="510.5248" y="336.7655">Unterklasse1</text><line style="stroke:#181818;stroke-width:0.688038874196392;" x1="471.9947" x2="626.1154" y1="350.8998" y2="350.8998"/><line style="stroke:#181818;stroke-width:0.688038874196392;" x1="471.9947" x2="626.1154" y1="361.9084" y2="361.9084"/></g><!--class Basis3--><g id="elem_Basis3"><rect codeLine="12" fill="#F1F1F1" height="66.0517" id="Basis3" rx="3.4402" ry="3.4402" style="stroke:#181818;stroke-width:0.688038874196392;" width="101.8298" x="981.1434" y="158.2489"/><ellipse cx="1001.7846" cy="180.2662" fill="#ADD1B2" rx="15.1369" ry="15.1369" style="stroke:#181818;stroke-width:1.376077748392784;"/><path d="M1005.5903,174.5899 Q1005.8053,174.2888 1006.0633,174.1383 Q1006.3214,173.9878 1006.6224,173.9878 Q1007.1384,173.9878 1007.4609,174.3534 Q1007.7834,174.6974 1007.7834,175.5359 L1007.7834,177.5355 Q1007.7834,178.3741 1007.4609,178.7396 Q1007.1384,179.1051 1006.6224,179.1051 Q1006.1493,179.1051 1005.8698,178.8256 Q1005.5903,178.5676 1005.4398,177.858 Q1005.3753,177.3635 1005.1173,177.1055 Q1004.6658,176.5895 1003.8272,176.2885 Q1002.9887,175.9874 1002.1286,175.9874 Q1001.0751,175.9874 1000.1935,176.439 Q999.3335,176.8905 998.6454,177.9226 Q997.9789,178.9546 997.9789,180.3737 L997.9789,181.8788 Q997.9789,183.5774 999.2045,184.7169 Q1000.43,185.835 1002.6231,185.835 Q1003.9132,185.835 1004.8163,185.491 Q1005.3538,185.276 1005.9343,184.6739 Q1006.2999,184.3084 1006.4934,184.2009 Q1006.7084,184.0934 1006.9879,184.0934 Q1007.4394,184.0934 1007.7834,184.4589 Q1008.149,184.8029 1008.149,185.276 Q1008.149,185.749 1007.6759,186.308 Q1006.9879,187.1036 1005.8913,187.5551 Q1004.4077,188.1786 1002.6231,188.1786 Q1000.5375,188.1786 998.8819,187.3186 Q997.5274,186.6305 996.5813,185.1685 Q995.6353,183.6849 995.6353,181.9218 L995.6353,180.3307 Q995.6353,178.5031 996.4738,176.9335 Q997.3338,175.3424 998.8389,174.5039 Q1000.344,173.6438 1002.0426,173.6438 Q1003.0532,173.6438 1003.9347,173.8803 Q1004.8378,174.0953 1005.5903,174.5899 Z " fill="#000000"/><text fill="#000000" font-family="sans-serif" font-size="19.2651" lengthAdjust="spacing" textLength="57.7953" x="1021.0497" y="188.1491">Basis3</text><line style="stroke:#181818;stroke-width:0.688038874196392;" x1="982.5195" x2="1081.5971" y1="202.2834" y2="202.2834"/><line style="stroke:#181818;stroke-width:0.688038874196392;" x1="982.5195" x2="1081.5971" y1="213.2921" y2="213.2921"/></g><!--class Basis31--><g id="elem_Basis31"><rect codeLine="13" fill="#F1F1F1" height="66.0517" id="Basis31" rx="3.4402" ry="3.4402" style="stroke:#181818;stroke-width:0.688038874196392;" width="112.8384" x="975.6391" y="9.6325"/><ellipse cx="996.2803" cy="31.6498" fill="#ADD1B2" rx="15.1369" ry="15.1369" style="stroke:#181818;stroke-width:1.376077748392784;"/><path d="M1000.086,25.9735 Q1000.301,25.6725 1000.559,25.5219 Q1000.817,25.3714 1001.1181,25.3714 Q1001.6341,25.3714 1001.9566,25.737 Q1002.2791,26.081 1002.2791,26.9195 L1002.2791,28.9191 Q1002.2791,29.7577 1001.9566,30.1232 Q1001.6341,30.4887 1001.1181,30.4887 Q1000.645,30.4887 1000.3655,30.2092 Q1000.086,29.9512 999.9355,29.2417 Q999.871,28.7471 999.613,28.4891 Q999.1615,27.9731 998.3229,27.6721 Q997.4844,27.371 996.6243,27.371 Q995.5707,27.371 994.6892,27.8226 Q993.8292,28.2741 993.1411,29.3062 Q992.4746,30.3382 992.4746,31.7573 L992.4746,33.2624 Q992.4746,34.961 993.7001,36.1005 Q994.9257,37.2186 997.1188,37.2186 Q998.4089,37.2186 999.312,36.8746 Q999.8495,36.6596 1000.43,36.0575 Q1000.7955,35.692 1000.9891,35.5845 Q1001.2041,35.477 1001.4836,35.477 Q1001.9351,35.477 1002.2791,35.8425 Q1002.6446,36.1865 1002.6446,36.6596 Q1002.6446,37.1326 1002.1716,37.6916 Q1001.4836,38.4872 1000.387,38.9387 Q998.9034,39.5622 997.1188,39.5622 Q995.0332,39.5622 993.3776,38.7022 Q992.023,38.0141 991.077,36.5521 Q990.1309,35.0685 990.1309,33.3054 L990.1309,31.7143 Q990.1309,29.8867 990.9695,28.3171 Q991.8295,26.726 993.3346,25.8875 Q994.8397,25.0274 996.5383,25.0274 Q997.5489,25.0274 998.4304,25.2639 Q999.3335,25.4789 1000.086,25.9735 Z " fill="#000000"/><text fill="#000000" font-family="sans-serif" font-size="19.2651" lengthAdjust="spacing" textLength="68.8039" x="1015.5454" y="39.5327">Basis31</text><line style="stroke:#181818;stroke-width:0.688038874196392;" x1="977.0152" x2="1087.1014" y1="53.667" y2="53.667"/><line style="stroke:#181818;stroke-width:0.688038874196392;" x1="977.0152" x2="1087.1014" y1="64.6757" y2="64.6757"/></g><!--class Unterklasse2--><g id="elem_Unterklasse2"><rect codeLine="14" fill="#F1F1F1" height="66.0517" id="Unterklasse2" rx="3.4402" ry="3.4402" style="stroke:#181818;stroke-width:0.688038874196392;" width="156.8729" x="953.6219" y="306.8653"/><ellipse cx="974.263" cy="328.8826" fill="#ADD1B2" rx="15.1369" ry="15.1369" style="stroke:#181818;stroke-width:1.376077748392784;"/><path d="M978.0688,323.2063 Q978.2838,322.9052 978.5418,322.7547 Q978.7998,322.6042 979.1008,322.6042 Q979.6168,322.6042 979.9394,322.9697 Q980.2619,323.3138 980.2619,324.1523 L980.2619,326.1519 Q980.2619,326.9905 979.9394,327.356 Q979.6168,327.7215 979.1008,327.7215 Q978.6278,327.7215 978.3483,327.442 Q978.0688,327.184 977.9183,326.4744 Q977.8537,325.9799 977.5957,325.7219 Q977.1442,325.2059 976.3057,324.9049 Q975.4671,324.6038 974.6071,324.6038 Q973.5535,324.6038 972.672,325.0554 Q971.8119,325.5069 971.1239,326.5389 Q970.4573,327.571 970.4573,328.9901 L970.4573,330.4952 Q970.4573,332.1938 971.6829,333.3333 Q972.9085,334.4514 975.1016,334.4514 Q976.3917,334.4514 977.2947,334.1074 Q977.8322,333.8924 978.4128,333.2903 Q978.7783,332.9248 978.9718,332.8173 Q979.1868,332.7098 979.4663,332.7098 Q979.9179,332.7098 980.2619,333.0753 Q980.6274,333.4193 980.6274,333.8924 Q980.6274,334.3654 980.1544,334.9244 Q979.4663,335.72 978.3698,336.1715 Q976.8862,336.795 975.1016,336.795 Q973.016,336.795 971.3604,335.935 Q970.0058,335.2469 969.0598,333.7849 Q968.1137,332.3013 968.1137,330.5382 L968.1137,328.9471 Q968.1137,327.1195 968.9522,325.5499 Q969.8123,323.9588 971.3174,323.1203 Q972.8225,322.2602 974.5211,322.2602 Q975.5316,322.2602 976.4132,322.4967 Q977.3162,322.7117 978.0688,323.2063 Z " fill="#000000"/><text fill="#000000" font-family="sans-serif" font-size="19.2651" lengthAdjust="spacing" textLength="112.8384" x="993.5281" y="336.7655">Unterklasse2</text><line style="stroke:#181818;stroke-width:0.688038874196392;" x1="954.998" x2="1109.1187" y1="350.8998" y2="350.8998"/><line style="stroke:#181818;stroke-width:0.688038874196392;" x1="954.998" x2="1109.1187" y1="361.9084" y2="361.9084"/></g><g id="elem_GMN24"><path d="M375.6692,455.4817 L375.6692,491.7435 A0,0 0 0 0 375.6692,491.7435 L722.4408,491.7435 A0,0 0 0 0 722.4408,491.7435 L722.4408,469.2425 L708.68,455.4817 L554.5593,455.4817 L549.055,373.5776 L543.5507,455.4817 L375.6692,455.4817 A0,0 0 0 0 375.6692,455.4817 " fill="#FEFFDD" style="stroke:#181818;stroke-width:0.688038874196392;"/><path d="M708.68,455.4817 L708.68,469.2425 L722.4408,469.2425 L708.68,455.4817 " fill="#FEFFDD" style="stroke:#181818;stroke-width:0.688038874196392;"/><text fill="#000000" font-family="sans-serif" font-size="17.889" lengthAdjust="spacing" textLength="317.874" x="383.9257" y="480.9325">Vererbungsbaum bei Mehrfachvererbung</text></g><g id="elem_GMN27"><path d="M913.7156,455.4817 L913.7156,491.7435 A0,0 0 0 0 913.7156,491.7435 L1150.401,491.7435 A0,0 0 0 0 1150.401,491.7435 L1150.401,469.2425 L1136.6402,455.4817 L1037.5626,455.4817 L1032.0583,373.5776 L1026.554,455.4817 L913.7156,455.4817 A0,0 0 0 0 913.7156,455.4817 " fill="#FEFFDD" style="stroke:#181818;stroke-width:0.688038874196392;"/><path d="M1136.6402,455.4817 L1136.6402,469.2425 L1150.401,469.2425 L1136.6402,455.4817 " fill="#FEFFDD" style="stroke:#181818;stroke-width:0.688038874196392;"/><text fill="#000000" font-family="sans-serif" font-size="17.889" lengthAdjust="spacing" textLength="207.7877" x="921.9721" y="480.9325">KEINE Mehrfachvererbung</text></g><!--reverse link Basis11 to Basis1--><g id="link_Basis11_Basis1"><path codeLine="17" d="M578.2666,97.4151 C591.5595,121.7166 597.9471,133.397 611.3088,157.8086 " fill="none" id="Basis11-backto-Basis1" style="stroke:#181818;stroke-width:1.376077748392784;"/><polygon fill="none" points="566.3798,75.6843,571.023,101.3773,585.5102,93.4529,566.3798,75.6843" style="stroke:#181818;stroke-width:1.376077748392784;"/></g><!--reverse link Basis12 to Basis1--><g id="link_Basis12_Basis1"><path codeLine="18" d="M680.3956,97.3268 C666.8687,121.6283 660.3109,133.397 646.729,157.8086 " fill="none" id="Basis12-backto-Basis1" style="stroke:#181818;stroke-width:1.376077748392784;"/><polygon fill="none" points="692.4423,75.6843,673.1814,93.3112,687.6097,101.3424,692.4423,75.6843" style="stroke:#181818;stroke-width:1.376077748392784;"/></g><!--reverse link Basis13 to Basis1--><g id="link_Basis13_Basis1"><path codeLine="19" d="M797.2866,88.4636 C756.252,113.1779 720.762,134.5529 680.0714,159.0608 " fill="none" id="Basis13-backto-Basis1" style="stroke:#181818;stroke-width:1.376077748392784;"/><polygon fill="none" points="818.5048,75.6843,793.0268,81.3909,801.5464,95.5363,818.5048,75.6843" style="stroke:#181818;stroke-width:1.376077748392784;"/></g><!--reverse link Basis21 to Basis2--><g id="link_Basis21_Basis2"><path codeLine="21" d="M139.8223,88.4636 C180.857,113.1779 216.3469,134.5529 257.0376,159.0608 " fill="none" id="Basis21-backto-Basis2" style="stroke:#181818;stroke-width:1.376077748392784;"/><polygon fill="none" points="118.6041,75.6843,135.5626,95.5363,144.0821,81.3909,118.6041,75.6843" style="stroke:#181818;stroke-width:1.376077748392784;"/></g><!--reverse link Basis22 to Basis2--><g id="link_Basis22_Basis2"><path codeLine="22" d="M256.7134,97.3268 C270.2402,121.6283 276.798,133.397 290.3799,157.8086 " fill="none" id="Basis22-backto-Basis2" style="stroke:#181818;stroke-width:1.376077748392784;"/><polygon fill="none" points="244.6666,75.6843,249.4992,101.3424,263.9276,93.3112,244.6666,75.6843" style="stroke:#181818;stroke-width:1.376077748392784;"/></g><!--reverse link Basis23 to Basis2--><g id="link_Basis23_Basis2"><path codeLine="23" d="M358.8424,97.4151 C345.5495,121.7166 339.1619,133.397 325.8002,157.8086 " fill="none" id="Basis23-backto-Basis2" style="stroke:#181818;stroke-width:1.376077748392784;"/><polygon fill="none" points="370.7291,75.6843,351.5988,93.4529,366.086,101.3773,370.7291,75.6843" style="stroke:#181818;stroke-width:1.376077748392784;"/></g><!--reverse link Basis1 to Unterklasse1--><g id="link_Basis1_Unterklasse1"><path codeLine="25" d="M599.656,246.0315 C586.3631,270.333 579.9755,282.0134 566.6138,306.425 " fill="none" id="Basis1-backto-Unterklasse1" style="stroke:#181818;stroke-width:1.376077748392784;"/><polygon fill="none" points="611.5427,224.3007,592.4124,242.0693,606.8996,249.9937,611.5427,224.3007" style="stroke:#181818;stroke-width:1.376077748392784;"/></g><!--reverse link Basis2 to Unterklasse1--><g id="link_Basis2_Unterklasse1"><path codeLine="26" d="M380.4928,236.4191 C420.8119,260.8445 455.6744,281.9583 496.3925,306.6176 " fill="none" id="Basis2-backto-Unterklasse1" style="stroke:#181818;stroke-width:1.376077748392784;"/><polygon fill="none" points="359.3077,223.5851,376.2148,243.4808,384.7708,229.3574,359.3077,223.5851" style="stroke:#181818;stroke-width:1.376077748392784;"/></g><!--reverse link Basis31 to Basis3--><g id="link_Basis31_Basis3"><path codeLine="28" d="M1032.0583,100.4537 C1032.0583,124.7552 1032.0583,133.397 1032.0583,157.8086 " fill="none" id="Basis31-backto-Basis3" style="stroke:#181818;stroke-width:1.376077748392784;"/><polygon fill="none" points="1032.0583,75.6843,1023.8018,100.4537,1040.3148,100.4537,1032.0583,75.6843" style="stroke:#181818;stroke-width:1.376077748392784;"/></g><!--reverse link Basis3 to Unterklasse2--><g id="link_Basis3_Unterklasse2"><path codeLine="29" d="M1032.0583,249.0701 C1032.0583,273.3716 1032.0583,282.0134 1032.0583,306.425 " fill="none" id="Basis3-backto-Unterklasse2" style="stroke:#181818;stroke-width:1.376077748392784;"/><polygon fill="none" points="1032.0583,224.3007,1023.8018,249.0701,1040.3148,249.0701,1032.0583,224.3007" style="stroke:#181818;stroke-width:1.376077748392784;"/></g><!--SRC=[VO_13i8W44JlVCN-G9C2yT9uCkd16Btf7PfjQMnB0jIB-kzgYX4eySQycHrsRIC6X4rPWiA-KuuqWx0MTiBsbjwVeMInf8bDKvydusbTacU__7boQAwV9r8IPdWaw3hE225-EzW-YiAluXdBC1unubSD8FECPHYFc6zSM7J34iWOn5yIz73FLkdt1vDs258xfqVGRLHLmGKD6ZbFdPLY7a5Y3qTKfXMDkdsjFmsiWaEzFzMPeHS0]--></g></svg>